<?xml version="1.0" encoding="UTF-8" standalone="no"?>
<!-- Created with Inkscape (http://www.inkscape.org/) -->

<svg
   xmlns:dc="http://purl.org/dc/elements/1.1/"
   xmlns:cc="http://creativecommons.org/ns#"
   xmlns:rdf="http://www.w3.org/1999/02/22-rdf-syntax-ns#"
   xmlns:svg="http://www.w3.org/2000/svg"
   xmlns="http://www.w3.org/2000/svg"
   xmlns:sodipodi="http://sodipodi.sourceforge.net/DTD/sodipodi-0.dtd"
   xmlns:inkscape="http://www.inkscape.org/namespaces/inkscape"
   width="139.87791mm"
   height="47.34127mm"
   viewBox="0 0 495.63041 167.74466"
   id="svg2"
   version="1.1"
   inkscape:version="0.91 r13725"
   sodipodi:docname="icons.svg">
  <defs
     id="defs4" />
  <sodipodi:namedview
     id="base"
     pagecolor="#ffffff"
     bordercolor="#666666"
     borderopacity="1.0"
     inkscape:pageopacity="0.0"
     inkscape:pageshadow="2"
     inkscape:zoom="1.4"
     inkscape:cx="202.86003"
     inkscape:cy="94.372386"
     inkscape:document-units="px"
     inkscape:current-layer="layer1"
     showgrid="false"
     fit-margin-top="2"
     fit-margin-left="2"
     fit-margin-right="2"
     fit-margin-bottom="2"
     inkscape:window-width="1920"
     inkscape:window-height="1152"
     inkscape:window-x="1600"
     inkscape:window-y="0"
     inkscape:window-maximized="1" />
  <metadata
     id="metadata7">
    <rdf:RDF>
      <cc:Work
         rdf:about="">
        <dc:format>image/svg+xml</dc:format>
        <dc:type
           rdf:resource="http://purl.org/dc/dcmitype/StillImage" />
        <dc:title></dc:title>
      </cc:Work>
    </rdf:RDF>
  </metadata>
  <g
     inkscape:label="Layer 1"
     inkscape:groupmode="layer"
     id="layer1"
     transform="translate(-20.042479,-16.562813)">
    <rect
       style="color:#000000;clip-rule:nonzero;display:inline;overflow:visible;visibility:visible;opacity:1;isolation:auto;mix-blend-mode:normal;color-interpolation:sRGB;color-interpolation-filters:linearRGB;solid-color:#000000;solid-opacity:1;fill:#05558a;fill-opacity:1;fill-rule:nonzero;stroke:none;stroke-width:4;stroke-linecap:round;stroke-linejoin:round;stroke-miterlimit:4;stroke-dasharray:none;stroke-dashoffset:0;stroke-opacity:1;color-rendering:auto;image-rendering:auto;shape-rendering:auto;text-rendering:auto;enable-background:accumulate"
       id="rect3347"
       width="115.71429"
       height="153.57143"
       x="27.129093"
       y="23.649427" />
    <rect
       y="23.649427"
       x="149.04338"
       height="153.57143"
       width="115.71429"
       id="rect3349"
       style="color:#000000;clip-rule:nonzero;display:inline;overflow:visible;visibility:visible;opacity:1;isolation:auto;mix-blend-mode:normal;color-interpolation:sRGB;color-interpolation-filters:linearRGB;solid-color:#000000;solid-opacity:1;fill:#47763f;fill-opacity:1;fill-rule:nonzero;stroke:none;stroke-width:4;stroke-linecap:round;stroke-linejoin:round;stroke-miterlimit:4;stroke-dasharray:none;stroke-dashoffset:0;stroke-opacity:1;color-rendering:auto;image-rendering:auto;shape-rendering:auto;text-rendering:auto;enable-background:accumulate" />
    <rect
       style="color:#000000;clip-rule:nonzero;display:inline;overflow:visible;visibility:visible;opacity:1;isolation:auto;mix-blend-mode:normal;color-interpolation:sRGB;color-interpolation-filters:linearRGB;solid-color:#000000;solid-opacity:1;fill:#8f1838;fill-opacity:1;fill-rule:nonzero;stroke:none;stroke-width:4;stroke-linecap:round;stroke-linejoin:round;stroke-miterlimit:4;stroke-dasharray:none;stroke-dashoffset:0;stroke-opacity:1;color-rendering:auto;image-rendering:auto;shape-rendering:auto;text-rendering:auto;enable-background:accumulate"
       id="rect3351"
       width="115.71429"
       height="153.57143"
       x="270.95767"
       y="23.649427" />
    <rect
       y="23.649427"
       x="392.87198"
       height="153.57143"
       width="115.71429"
       id="rect3353"
       style="color:#000000;clip-rule:nonzero;display:inline;overflow:visible;visibility:visible;opacity:1;isolation:auto;mix-blend-mode:normal;color-interpolation:sRGB;color-interpolation-filters:linearRGB;solid-color:#000000;solid-opacity:1;fill:#d18d2c;fill-opacity:1;fill-rule:nonzero;stroke:none;stroke-width:4;stroke-linecap:round;stroke-linejoin:round;stroke-miterlimit:4;stroke-dasharray:none;stroke-dashoffset:0;stroke-opacity:1;color-rendering:auto;image-rendering:auto;shape-rendering:auto;text-rendering:auto;enable-background:accumulate" />
    <g
       id="g3379"
       transform="matrix(0.97491974,0,0,0.97491974,-28.83634,-680.58333)">
      <text
         sodipodi:linespacing="125%"
         id="text3363"
         y="763.80859"
         x="65.857147"
         style="font-style:normal;font-variant:normal;font-weight:normal;font-stretch:normal;font-size:70px;line-height:125%;font-family:Anatolian;-inkscape-font-specification:Anatolian;text-align:start;letter-spacing:0px;word-spacing:0px;writing-mode:lr-tb;text-anchor:start;fill:#ffffff;fill-opacity:1;stroke:none;stroke-width:1px;stroke-linecap:butt;stroke-linejoin:miter;stroke-opacity:1"
         xml:space="preserve"><tspan
           style="font-style:normal;font-variant:normal;font-weight:normal;font-stretch:condensed;font-size:41.0290184px;font-family:'Universalis ADF Cd Std';-inkscape-font-specification:'Universalis ADF Cd Std Condensed';fill:#ffffff"
           y="763.80859"
           x="65.857147"
           id="tspan3365"
           sodipodi:role="line">1</tspan></text>
      <text
         xml:space="preserve"
         style="font-style:normal;font-variant:normal;font-weight:normal;font-stretch:normal;font-size:70px;line-height:125%;font-family:Anatolian;-inkscape-font-specification:Anatolian;text-align:start;letter-spacing:0px;word-spacing:0px;writing-mode:lr-tb;text-anchor:start;fill:#ffffff;fill-opacity:1;stroke:none;stroke-width:1px;stroke-linecap:butt;stroke-linejoin:miter;stroke-opacity:1"
         x="82.05146"
         y="748.21326"
         id="text3367"
         sodipodi:linespacing="125%"><tspan
           sodipodi:role="line"
           id="tspan3369"
           x="82.05146"
           y="748.21326"
           style="font-style:normal;font-variant:normal;font-weight:bold;font-stretch:condensed;font-size:17.5px;font-family:'Universalis ADF Cd Std';-inkscape-font-specification:'Universalis ADF Cd Std Bold Condensed';fill:#ffffff">Atmosphere</tspan></text>
    </g>
    <g
       id="g3385"
       transform="matrix(0.97491974,0,0,0.97491974,98.049389,-680.58333)">
      <text
         xml:space="preserve"
         style="font-style:normal;font-variant:normal;font-weight:normal;font-stretch:normal;font-size:70px;line-height:125%;font-family:Anatolian;-inkscape-font-specification:Anatolian;text-align:start;letter-spacing:0px;word-spacing:0px;writing-mode:lr-tb;text-anchor:start;fill:#ffffff;fill-opacity:1;stroke:none;stroke-width:1px;stroke-linecap:butt;stroke-linejoin:miter;stroke-opacity:1"
         x="79.097145"
         y="763.80859"
         id="text3387"
         sodipodi:linespacing="125%"><tspan
           sodipodi:role="line"
           id="tspan3389"
           x="79.097145"
           y="763.80859"
           style="font-style:normal;font-variant:normal;font-weight:normal;font-stretch:condensed;font-size:41.0290184px;font-family:'Universalis ADF Cd Std';-inkscape-font-specification:'Universalis ADF Cd Std Condensed';text-align:end;text-anchor:end;fill:#ffffff">2</tspan></text>
      <text
         sodipodi:linespacing="125%"
         id="text3391"
         y="747.72095"
         x="82.05146"
         style="font-style:normal;font-variant:normal;font-weight:normal;font-stretch:normal;font-size:70px;line-height:125%;font-family:Anatolian;-inkscape-font-specification:Anatolian;text-align:start;letter-spacing:0px;word-spacing:0px;writing-mode:lr-tb;text-anchor:start;fill:#ffffff;fill-opacity:1;stroke:none;stroke-width:1px;stroke-linecap:butt;stroke-linejoin:miter;stroke-opacity:1"
         xml:space="preserve"><tspan
           style="font-style:normal;font-variant:normal;font-weight:bold;font-stretch:condensed;font-size:17.5px;font-family:'Universalis ADF Cd Std';-inkscape-font-specification:'Universalis ADF Cd Std Bold Condensed';fill:#ffffff"
           y="747.72095"
           x="82.05146"
           id="tspan3393"
           sodipodi:role="line">Biosphere</tspan></text>
    </g>
    <g
       transform="matrix(0.97491974,0,0,0.97491974,221.30118,-680.58333)"
       id="g3395">
      <text
         sodipodi:linespacing="125%"
         id="text3397"
         y="763.80859"
         x="79.097145"
         style="font-style:normal;font-variant:normal;font-weight:normal;font-stretch:normal;font-size:70px;line-height:125%;font-family:Anatolian;-inkscape-font-specification:Anatolian;text-align:start;letter-spacing:0px;word-spacing:0px;writing-mode:lr-tb;text-anchor:start;fill:#ffffff;fill-opacity:1;stroke:none;stroke-width:1px;stroke-linecap:butt;stroke-linejoin:miter;stroke-opacity:1"
         xml:space="preserve"><tspan
           style="font-style:normal;font-variant:normal;font-weight:normal;font-stretch:condensed;font-size:41.0290184px;font-family:'Universalis ADF Cd Std';-inkscape-font-specification:'Universalis ADF Cd Std Condensed';text-align:end;text-anchor:end;fill:#ffffff"
           y="763.80859"
           x="79.097145"
           id="tspan3399"
           sodipodi:role="line">3</tspan></text>
      <text
         xml:space="preserve"
         style="font-style:normal;font-variant:normal;font-weight:normal;font-stretch:normal;font-size:70px;line-height:100%;font-family:Anatolian;-inkscape-font-specification:Anatolian;text-align:start;letter-spacing:0px;word-spacing:0px;writing-mode:lr-tb;text-anchor:start;fill:#ffffff;fill-opacity:1;stroke:none;stroke-width:1px;stroke-linecap:butt;stroke-linejoin:miter;stroke-opacity:1"
         x="82.05146"
         y="747.76196"
         id="text3401"
         sodipodi:linespacing="100%"><tspan
           sodipodi:role="line"
           id="tspan3403"
           x="82.05146"
           y="747.76196"
           style="font-style:normal;font-variant:normal;font-weight:bold;font-stretch:condensed;font-size:17.5px;line-height:100%;font-family:'Universalis ADF Cd Std';-inkscape-font-specification:'Universalis ADF Cd Std Bold Condensed';fill:#ffffff">Ground</tspan><tspan
           sodipodi:role="line"
           x="82.05146"
           y="765.26196"
           style="font-style:normal;font-variant:normal;font-weight:bold;font-stretch:condensed;font-size:17.5px;line-height:100%;font-family:'Universalis ADF Cd Std';-inkscape-font-specification:'Universalis ADF Cd Std Bold Condensed';fill:#ffffff"
           id="tspan3405">Surface</tspan></text>
    </g>
    <g
       id="g3407"
       transform="matrix(0.97491974,0,0,0.97491974,343.08174,-683.44047)">
      <text
         xml:space="preserve"
         style="font-style:normal;font-variant:normal;font-weight:normal;font-stretch:normal;font-size:70px;line-height:125%;font-family:Anatolian;-inkscape-font-specification:Anatolian;text-align:start;letter-spacing:0px;word-spacing:0px;writing-mode:lr-tb;text-anchor:start;fill:#ffffff;fill-opacity:1;stroke:none;stroke-width:1px;stroke-linecap:butt;stroke-linejoin:miter;stroke-opacity:1"
         x="79.097145"
         y="765.70374"
         id="text3409"
         sodipodi:linespacing="125%"><tspan
           sodipodi:role="line"
           id="tspan3411"
           x="79.097145"
           y="765.70374"
           style="font-style:normal;font-variant:normal;font-weight:normal;font-stretch:condensed;font-size:41.0290184px;font-family:'Universalis ADF Cd Std';-inkscape-font-specification:'Universalis ADF Cd Std Condensed';text-align:end;text-anchor:end;fill:#ffffff">4</tspan></text>
      <text
         sodipodi:linespacing="100%"
         id="text3413"
         y="748.93359"
         x="82.05146"
         style="font-style:normal;font-variant:normal;font-weight:normal;font-stretch:normal;font-size:70px;line-height:100%;font-family:Anatolian;-inkscape-font-specification:Anatolian;text-align:start;letter-spacing:0px;word-spacing:0px;writing-mode:lr-tb;text-anchor:start;fill:#ffffff;fill-opacity:1;stroke:none;stroke-width:1px;stroke-linecap:butt;stroke-linejoin:miter;stroke-opacity:1"
         xml:space="preserve"><tspan
           id="tspan3417"
           style="font-style:normal;font-variant:normal;font-weight:bold;font-stretch:condensed;font-size:17.5px;line-height:100%;font-family:'Universalis ADF Cd Std';-inkscape-font-specification:'Universalis ADF Cd Std Bold Condensed';fill:#ffffff"
           y="748.93359"
           x="82.05146"
           sodipodi:role="line">Socio-</tspan><tspan
           style="font-style:normal;font-variant:normal;font-weight:bold;font-stretch:condensed;font-size:17.5px;line-height:100%;font-family:'Universalis ADF Cd Std';-inkscape-font-specification:'Universalis ADF Cd Std Bold Condensed';fill:#ffffff"
           y="766.43359"
           x="82.05146"
           sodipodi:role="line"
           id="tspan3421">Economic</tspan></text>
    </g>
    <path
       style="fill:#ffffff"
       d="m 431.44423,117.07337 0,-6.72279 1.38247,-1.20324 c 0.76036,-0.66178 3.09582,-2.70727 5.1899,-4.54552 2.09408,-1.83827 4.02236,-3.34231 4.28506,-3.34231 0.3462,0 0.47766,3.10121 0.47766,11.26833 l 0,11.26834 -5.66755,0 -5.66754,0 0,-6.72281 z m 14.27382,-3.8591 0,-10.58189 1.77711,1.50994 c 0.97742,0.83046 1.84402,1.64082 1.92577,1.80079 0.0818,0.15997 0.49467,0.45935 0.91759,0.66529 0.63054,0.30704 1.20079,-0.003 3.16841,-1.72328 1.31971,-1.15373 2.56303,-2.0977 2.76294,-2.0977 0.19989,0 0.36344,4.72697 0.36344,10.50438 l 0,10.50438 -5.45762,0 -5.45764,0 0,-10.58191 z m 13.85398,-1.73636 0,-12.318251 5.14278,-4.44659 c 2.82852,-2.44562 5.28446,-4.36947 5.45764,-4.27522 0.17316,0.0943 0.31485,7.63844 0.31485,16.764851 l 0,16.59348 -5.45763,0 -5.45764,0 0,-12.31827 z m -30.15371,-4.99083 c -0.50204,-0.48624 -0.91281,-1.04678 -0.91281,-1.24564 0,-0.48771 13.95977,-13.149391 14.49749,-13.149391 0.23352,0 2.02205,1.46107 3.9745,3.24682 1.95245,1.78574 3.74488,3.2468 3.98315,3.2468 0.63979,0 16.16811,-14.24564 16.16811,-14.83258 0,-0.2756 -0.30223,-0.77607 -0.6716,-1.11215 -0.6156,-0.56011 -0.55433,-0.64985 0.73469,-1.07608 2.14533,-0.70941 6.20751,-1.4657 6.49033,-1.20837 0.37471,0.34094 -1.15587,7.15184 -1.6072,7.15184 -0.2135,0 -0.68001,-0.26551 -1.03666,-0.59002 -0.35666,-0.32451 -0.80984,-0.53937 -1.00707,-0.47748 -0.19722,0.0619 -4.50966,3.85116 -9.58318,8.42056 -5.07353,4.5694 -9.38121,8.308011 -9.57263,8.308011 -0.19142,0 -1.94549,-1.46106 -3.89794,-3.246811 -1.95245,-1.78575 -3.74554,-3.24681 -3.98463,-3.24681 -0.23909,0 -3.0745,2.40646 -6.30091,5.347681 -3.22642,2.94123 -5.97748,5.34769 -6.1135,5.34769 -0.13603,0 -0.65809,-0.39783 -1.16014,-0.88407 z"
       id="path3545"
       inkscape:connector-curvature="0" />
    <path
       style="fill:#ffffff"
       d="m 412.37016,163.27873 c -0.17949,-0.4678 0.23149,-3.00907 1.47391,-9.11388 0.50572,-2.48495 0.61142,-4.08975 0.57637,-8.75024 -0.0621,-8.25225 0.10371,-8.46224 6.68084,-8.46224 6.20959,0 6.70105,0.4695 6.70105,6.40134 0,3.60785 0.25428,4.84973 1.00065,4.88722 0.20352,0.0104 0.78624,0.59278 1.29494,1.29451 0.87483,1.20686 1.01741,1.28081 2.63313,1.36637 1.69418,0.0896 1.71747,0.0793 2.83321,-1.28257 0.61875,-0.75509 1.3661,-1.44945 1.66077,-1.54295 0.37417,-0.11873 0.83136,-1.15583 1.51587,-3.43864 1.88538,-6.28771 1.74714,-6.16231 6.79237,-6.16231 3.56311,0 3.65451,0.0171 4.47064,0.83763 0.77497,0.77915 1.76264,3.3834 2.92885,7.72286 0.41904,1.55921 0.15855,2.40491 -0.74078,2.40491 -0.81406,0 -1.04778,-0.42581 -2.17368,-3.95971 -0.70681,-2.21857 -1.05541,-2.96997 -1.13799,-2.45315 -0.0655,0.40988 0.0313,1.23226 0.21512,1.8276 0.1838,0.59526 0.82237,2.85084 1.41905,5.0122 1.18732,4.30093 1.16634,4.43304 -0.70526,4.44185 l -0.98993,0.008 0,4.04424 c 0,4.30718 -0.3078,5.39819 -1.52297,5.39819 -1.20247,0 -1.52296,-1.10015 -1.52296,-5.22795 0,-2.25405 -0.12737,-3.95267 -0.30459,-4.06218 -0.19749,-0.12202 -0.3046,1.301 -0.3046,4.0468 0,3.71609 -0.0683,4.29692 -0.55703,4.73916 -0.76341,0.69092 -1.45108,0.63196 -2.01474,-0.17281 -0.37109,-0.5298 -0.47417,-1.55208 -0.47417,-4.70279 l 0,-4.02589 -1.14222,-0.0945 c -1.45101,-0.12009 -1.55247,-0.65142 -0.69774,-3.65415 0.34875,-1.22521 0.78424,-2.77593 0.96776,-3.44602 0.18352,-0.67009 0.44627,-1.56105 0.58389,-1.9799 0.48708,-1.48222 0.64304,-2.74132 0.33957,-2.74132 -0.16596,0 -0.66519,1.19933 -1.1094,2.66521 -1.30881,4.31896 -1.32085,4.34043 -2.42616,4.34043 -0.89955,0 -1.06376,0.17049 -2.15735,2.23971 l -1.18369,2.23956 0.57705,2.31734 c 0.53458,2.1467 0.54042,2.35781 0.0795,2.86718 -0.3107,0.3433 -0.53269,1.22257 -0.59105,2.34098 -0.0697,1.33497 -0.23411,1.87687 -0.6456,2.12732 -0.92795,0.56489 -1.73135,-0.73923 -1.737,-2.81968 -0.003,-1.22136 -0.09,-1.58565 -0.29993,-1.26078 -0.1624,0.25125 -0.29736,1.23579 -0.29993,2.18772 -0.004,1.47469 -0.097,1.76022 -0.62846,1.92895 -1.03791,0.32935 -1.50836,-0.36501 -1.50836,-2.22626 0,-1.1217 -0.16387,-1.87126 -0.48725,-2.22857 -0.44707,-0.494 -0.44185,-0.73106 0.0634,-2.87391 l 0.55059,-2.33546 -1.17326,-2.27913 c -1.04025,-2.02084 -1.25656,-2.26327 -1.90809,-2.13869 -1.37752,0.26326 -1.61423,-0.39881 -1.61423,-4.51508 0,-3.23138 -0.0659,-3.75077 -0.45689,-3.60072 -0.39399,0.15118 -0.45689,1.63196 -0.45689,10.75626 0,10.24671 -0.0195,10.59866 -0.61841,11.14064 -0.48969,0.4432 -0.79083,0.49912 -1.44682,0.26887 l -0.8284,-0.29074 -0.17362,-6.542 c -0.0955,-3.59808 -0.19828,-6.59305 -0.22845,-6.65546 -0.0301,-0.0625 -0.26043,0.0569 -0.51172,0.26575 -0.37872,0.31429 -0.45689,1.43928 -0.45689,6.57533 0,5.81424 -0.0363,6.21562 -0.58916,6.51149 -0.83699,0.44792 -1.15661,0.39705 -1.84758,-0.29387 -0.58561,-0.58564 -0.60919,-1.0153 -0.60919,-11.09971 0,-9.47993 -0.16492,-11.8189 -0.72957,-10.3475 -0.10131,0.26406 -0.18421,1.91709 -0.18421,3.67339 0,1.75637 -0.13209,3.44016 -0.29354,3.74188 -0.27441,0.51266 -0.78571,2.86518 -1.56025,7.17861 -1.22194,6.80494 -1.75659,8.42264 -2.30843,6.98464 z m 46.71653,0.0971 c -0.42679,-0.3187 -0.52307,-1.07516 -0.59126,-4.64503 l -0.0814,-4.26432 -1.15924,-0.0955 c -0.68313,-0.0561 -1.23168,-0.28441 -1.33563,-0.55528 -0.15062,-0.39248 1.24568,-6.29052 2.04525,-8.63927 0.48779,-1.43287 0.65542,-2.7414 0.35119,-2.7414 -0.16452,0 -0.59126,0.99375 -0.94831,2.20831 -1.23717,4.20847 -1.52236,4.7974 -2.32319,4.7974 -1.25114,0 -1.21796,-1.1112 0.16406,-5.49481 1.73713,-5.50988 1.69027,-5.47059 6.52037,-5.47059 l 3.79909,0 0.93596,1.13549 c 0.51477,0.62454 0.93596,1.27724 0.93596,1.45053 0,0.17321 0.35636,1.40988 0.79192,2.74805 1.16758,3.58726 1.33933,4.45468 1.00553,5.07838 -0.38549,0.72024 -1.38788,0.70902 -1.77802,-0.02 -0.33539,-0.62667 -0.94075,-2.42751 -1.57369,-4.6814 -0.22346,-0.79571 -0.51345,-1.44681 -0.6444,-1.44681 -0.36226,0 -0.29239,0.57771 0.35077,2.89978 2.4763,8.94052 2.46334,8.66043 0.40106,8.67012 l -0.98992,0.008 0,4.21713 c 0,3.69862 -0.0685,4.27906 -0.55702,4.72113 -0.63534,0.57499 -0.92971,0.61369 -1.57513,0.20686 -0.35875,-0.22616 -0.48962,-1.22304 -0.6092,-4.64046 -0.19753,-5.64511 -0.73147,-5.67027 -0.84655,-0.0401 -0.0719,3.515 -0.16653,4.22386 -0.60918,4.56011 -0.66489,0.50497 -1.04093,0.51322 -1.67898,0.0368 z m 12.34867,0.17906 c -0.27978,-0.11289 -0.38074,-1.31334 -0.38074,-4.52686 0,-2.40531 -0.12539,-4.45075 -0.27866,-4.54553 -0.15326,-0.0947 -0.51381,0.44353 -0.80122,1.19613 -0.64211,1.68139 -1.13886,2.15888 -1.63005,1.56706 -0.26809,-0.32302 -0.2687,-0.63812 -0.002,-1.29827 0.19334,-0.47941 0.45754,-1.14589 0.58713,-1.48094 1.44321,-3.73147 1.86014,-4.11322 4.48589,-4.10745 2.93566,0.008 3.38673,0.32623 4.60231,3.26383 0.56738,1.37118 0.95049,2.70447 0.85133,2.96284 -0.33508,0.87318 -1.14973,0.50153 -1.64079,-0.74852 -0.26322,-0.67009 -0.5845,-1.2184 -0.71395,-1.2184 -0.12946,0 -0.27999,1.92422 -0.33454,4.27602 -0.0787,3.39193 -0.19364,4.33562 -0.55606,4.56427 -1.14715,0.72368 -1.82756,-0.20101 -1.82756,-2.48351 0,-1.13828 -0.11449,-1.75301 -0.30459,-1.63556 -0.16753,0.10351 -0.3046,0.92421 -0.3046,1.82375 0,2.01139 -0.61426,2.84996 -1.75141,2.39114 z m 9.87035,-0.35532 c -0.44801,-0.49503 -0.5041,-1.69541 -0.5041,-10.78814 0,-5.62708 -0.0829,-10.44716 -0.18421,-10.71122 -0.43593,-1.13596 -0.72957,0.0785 -0.72957,3.01747 0,3.74325 -0.27993,4.72306 -1.34933,4.72306 -1.00937,0 -1.17955,-0.98854 -1.04225,-6.05442 0.0931,-3.43648 0.19061,-4.06567 0.74568,-4.81287 1.06457,-1.43308 1.76028,-1.61173 6.29543,-1.61657 0,0 2.52334,-0.0587 3.65418,0.3801 1.13085,0.43889 1.75464,0.7045 2.2755,1.85303 0.52086,1.14855 0.63772,4.32642 0.63772,4.32642 0.12115,5.46806 0.022,5.99674 -1.09982,5.86735 l -0.82701,-0.0953 -0.0853,-3.70158 c -0.0598,-2.59375 -0.20482,-3.80077 -0.48469,-4.03302 -0.32634,-0.27088 -0.43611,0.84714 -0.60006,6.1113 -0.11035,3.54352 -0.20064,8.47175 -0.20064,10.95181 0,4.14623 -0.0474,4.53439 -0.58916,4.82433 -0.83698,0.44801 -1.15661,0.39713 -1.84759,-0.29386 -0.56857,-0.56858 -0.60918,-1.01531 -0.60918,-6.70104 0,-5.21193 -0.066,-6.09184 -0.45689,-6.09184 -0.39073,0 -0.45689,0.87238 -0.45689,6.02406 0,4.95932 -0.0838,6.14375 -0.47416,6.70104 -0.5758,0.82207 -1.38955,0.86925 -2.06768,0.11993 z m -50.13074,-14.56142 c -0.34721,-0.44144 -0.63129,-1.03975 -0.63129,-1.3296 0,-1.02164 1.18987,-2.13212 2.28445,-2.13212 1.30564,0 2.41174,1.25477 2.13639,2.4235 -0.43408,1.84258 -2.67414,2.45626 -3.78955,1.03822 z m 40.85086,0.18154 c -1.43361,-1.33561 -0.38343,-3.64326 1.658,-3.64326 1.15572,0 1.93969,0.88912 1.93969,2.19989 0,1.81294 -2.23746,2.71056 -3.59769,1.44337 z m -28.50985,-12.80446 c -1.03337,-1.22809 -1.00243,-2.24638 0.10179,-3.35059 1.24891,-1.24891 2.72883,-1.2307 3.80377,0.0468 0.43371,0.51543 0.78856,1.25878 0.78856,1.65189 0,0.39311 -0.35485,1.13647 -0.78856,1.6519 -0.62727,0.74546 -1.02668,0.93715 -1.95277,0.93715 -0.92611,0 -1.32551,-0.19169 -1.95279,-0.93715 z m 16.40713,0.18951 c -1.64259,-1.64261 -0.48388,-4.43045 1.8414,-4.43045 1.48538,0 2.58905,1.10367 2.58905,2.58903 0,1.48539 -1.10367,2.58905 -2.58905,2.58905 -0.75515,0 -1.32522,-0.23146 -1.8414,-0.74763 z m -39.93146,-0.77278 c -1.39488,-0.56289 -2.06451,-2.58443 -1.31809,-3.97913 0.1725,-0.32231 0.73077,-0.80173 1.24061,-1.06538 1.89803,-0.98151 3.92845,0.37224 3.92845,2.61921 0,0.91047 -0.19533,1.3146 -0.93715,1.93878 -0.96391,0.81106 -1.77429,0.9464 -2.91382,0.48652 z m 62.89065,-0.16384 c -0.98876,-0.53697 -1.60777,-2.18367 -1.21101,-3.22152 0.6389,-1.67117 2.27105,-2.37255 3.81554,-1.63964 1.87632,0.89037 2.18142,3.05699 0.64662,4.59178 -0.83609,0.83611 -2.02604,0.93471 -3.25115,0.26938 z"
       id="path3595"
       inkscape:connector-curvature="0"
       sodipodi:nodetypes="sssssssssssssssssssscsssssssscsssssssscsssssscsssscssssssscscsssssssssssscsssssssscssssssssscssssssscscsscssssssssssscccssssssszzsscssssssssssccssssssssssssssssssssssssssssssss" />
    <g
       id="g3644"
       style="fill:#ffffff"
       transform="translate(-24.712843,-834.02556)">
      <path
         inkscape:connector-curvature="0"
         id="path3532"
         d="m 233.78894,999.28641 c 1.01692,-0.17489 2.85104,-0.66262 3.49821,-0.93026 1.84557,-0.76333 3.60146,-1.70482 5.37461,-2.88189 1.99034,-1.32127 2.60131,-1.57703 2.60131,-1.08893 0,0.1373 0.57363,0.88763 1.27474,1.66741 1.63445,1.81791 3.87751,3.12045 5.37364,3.12045 l 1.12303,0 -0.75007,-1.46929 c -1.19019,-2.33133 -1.56449,-3.82636 -1.55898,-6.2268 0.005,-2.23625 0.17099,-2.8961 1.42647,-5.67475 0.88314,-1.95458 0.86099,-2.12947 -0.24222,-1.91194 -2.27834,0.44927 -5.41109,2.73046 -6.57976,4.79123 -0.28669,0.50553 -0.37485,0.51929 -0.96085,0.14988 -4.76231,-3.00204 -6.64396,-3.93452 -9.4044,-4.66049 -3.8939,-1.02407 -8.15806,0.0427 -11.99081,2.99959 -1.64545,1.26946 -4.29721,4.04002 -4.29721,4.48974 0,0.56093 3.27388,3.70091 5.17736,4.96555 1.87397,1.24506 2.44815,1.55521 4.09197,2.21022 0.82729,0.32963 4.77523,0.63378 5.84296,0.45028 z m -7.34625,-7.59463 c -0.76144,-0.6862 -0.63353,-2.15989 0.24763,-2.85301 0.40556,-0.31902 0.95529,-0.58003 1.22162,-0.58003 0.93865,0 1.959,1.09324 1.959,2.09893 0,1.81194 -2.02402,2.59961 -3.42825,1.33411 z"
         style="fill:#ffffff" />
      <path
         sodipodi:nodetypes="cccsccscccsscssssscccssscsscccssssssscccsccccsssscccsccsssssccc"
         inkscape:connector-curvature="0"
         id="path3558"
         d="m 221.82512,951.86185 c -0.23822,-0.44511 -0.3676,-2.37577 -0.30399,-4.53541 l 0.1108,-3.76037 1.26653,-0.36238 c 0.85433,-0.24444 1.57881,-0.22008 2.22613,0.0748 0.92154,0.41989 0.9594,0.57956 0.95433,4.02669 -0.007,5.08975 -0.10531,5.33165 -2.15559,5.33165 -1.28771,0 -1.78094,-0.18218 -2.09821,-0.77503 z m -9.0977,-11.80116 c -1.49275,-0.65715 -2.96712,-2.34465 -3.58116,-4.09886 -0.6399,-1.82804 -0.61083,-2.79273 0.1576,-5.23046 l 0.64154,-2.0352 -1.01838,-1.21028 c -1.51035,-1.79495 -2.04416,-3.9112 -1.46998,-5.82764 0.57883,-1.93196 2.50569,-4.17912 3.86169,-4.50362 2.14958,-0.5144 3.10957,-1.264 3.36544,-2.62794 0.28386,-1.51312 2.76264,-4.30202 4.75299,-5.34769 1.76971,-0.92974 5.46644,-0.90104 7.33995,0.057 3.64516,1.86391 5.20232,4.56638 5.07832,8.81336 l -0.0848,2.90169 1.7058,1.00717 c 1.92318,1.13551 2.71537,1.92992 4.1471,4.15873 0.8565,1.33331 0.99471,1.97921 0.99432,4.64583 -2.7e-4,1.86133 -0.20883,3.48344 -0.52265,4.0651 -1.15612,2.14299 -2.96087,3.92954 -4.89284,4.84351 -1.98888,0.94088 -2.24258,0.96303 -10.67542,0.9322 -6.25294,-0.0228 -8.95883,-0.17276 -9.79957,-0.54288 z m 39.68314,-4.64797 c -1.94803,-1.32135 -4.99651,-1.96973 -6.61249,-1.40641 -1.91845,0.66878 -2.29078,-0.0559 -0.76226,-1.48374 1.67107,-1.56102 4.97599,-1.78346 7.86237,-0.52919 1.227,0.53318 1.62209,0.55434 2.51649,0.13475 2.92204,-1.37084 6.13455,-1.2963 7.99285,0.18546 1.53866,1.22688 1.17535,2.28127 -0.5757,1.67085 -1.5749,-0.54902 -4.39016,0.0609 -6.53715,1.4162 -1.872,1.18174 -2.15837,1.18263 -3.88411,0.0121 z m -7.18168,-15.64593 c -0.20229,-0.1921 -1.15882,-0.61318 -2.12566,-0.93575 -1.40583,-0.46903 -2.08176,-0.50002 -3.37535,-0.15473 -2.15222,0.57445 -2.45103,0.13417 -0.93625,-1.37951 1.12495,-1.12417 1.46847,-1.24459 3.51724,-1.23301 1.31783,0.007 2.53449,0.23188 2.89962,0.53489 0.53717,0.44583 0.97516,0.36673 2.99939,-0.54168 2.20324,-0.98877 2.47944,-1.02773 3.91845,-0.55281 2.97139,0.98066 3.48061,2.56947 0.75727,2.36279 -1.60274,-0.12163 -5.50601,1.23211 -5.50601,1.9096 0,0.44619 -1.67657,0.43855 -2.1487,-0.01 z m 10.01339,-7.3317 c -1.41074,-1.41073 -2.52775,-1.99784 -3.80106,-1.99784 -0.8366,0 -0.998,-0.15681 -0.89653,-0.8711 0.10573,-0.74456 0.393,-0.88832 1.97765,-0.9897 1.52639,-0.0977 2.06171,0.0562 3.03013,0.87109 0.94953,0.79898 1.58655,0.98971 3.30563,0.98971 1.83735,0 2.28462,0.15521 3.26106,1.13167 0.62243,0.62243 1.13169,1.3193 1.13169,1.54861 0,0.5255 -1.42082,0.54979 -1.74219,0.0298 -0.30961,-0.50096 -3.51419,-0.50205 -4.44943,-0.002 -0.57318,0.30675 -0.94488,0.16135 -1.81695,-0.71071 z"
         style="fill:#ffffff" />
      <path
         inkscape:connector-curvature="0"
         id="path3636"
         d="m 208.92923,976.30481 c -1.06827,-0.3872 -2.78047,-1.35532 -3.34278,-1.89012 -0.56017,-0.53272 -0.6451,-0.79401 -0.6451,-1.98446 0,-0.92966 0.10121,-1.40975 0.31441,-1.4916 0.17294,-0.0663 0.93825,0.1217 1.70072,0.41786 1.17055,0.45475 1.8244,0.53853 4.20127,0.53853 2.69161,0 2.88179,-0.0332 4.33975,-0.74967 0.83862,-0.41233 1.98069,-1.09625 2.53792,-1.51977 l 1.01316,-0.77011 0.7462,0.4343 c 3.68611,2.14518 5.16012,2.61298 8.1355,2.58211 1.87321,-0.0193 2.44669,-0.12156 3.59681,-0.64075 0.75256,-0.33974 1.77856,-0.94264 2.28001,-1.33978 0.50144,-0.39714 1.09966,-0.73219 1.32938,-0.74455 0.22972,-0.0124 0.99827,0.37642 1.70788,0.86411 1.85603,1.27541 3.1222,1.75909 5.02629,1.92009 2.54806,0.21536 5.26356,-0.51352 7.95833,-2.13628 1.48791,-0.89595 1.61156,-0.88648 3.20146,0.24416 1.62569,1.15613 3.01819,1.71842 4.81124,1.94275 1.9323,0.24174 4.15879,-0.0152 5.95745,-0.68854 1.52453,-0.57037 1.6553,-0.45703 1.66051,1.43931 0.003,1.07705 -0.092,1.38972 -0.54086,1.77995 -1.49277,1.29793 -3.35069,1.95698 -5.51681,1.95698 -2.47686,0 -3.81144,-0.56629 -7.4295,-3.15261 -0.21701,-0.15513 -0.83384,0.13468 -2.08356,0.97897 -1.72209,1.16338 -3.20202,1.75005 -5.22791,2.07232 -1.94412,0.30928 -6.05544,-1.00356 -8.2115,-2.62217 -0.95033,-0.71348 -1.39489,-0.70505 -2.50197,0.047 -1.5913,1.08126 -3.51278,1.91126 -5.37948,2.32352 -1.56112,0.34479 -2.04417,0.36185 -3.33721,0.11783 -1.75528,-0.33118 -3.8324,-1.26802 -5.13263,-2.31495 -0.50156,-0.40384 -1.02207,-0.73427 -1.15668,-0.73427 -0.13461,0 -1.09653,0.56346 -2.13762,1.25207 -2.49223,1.64852 -3.60412,2.03647 -5.7713,2.01354 -0.96332,-0.0104 -1.90985,-0.0759 -2.10338,-0.14601 z m 0.0636,-9.34533 c -1.26297,-0.34016 -2.77962,-1.1819 -3.59031,-1.99255 -0.6143,-0.61429 -0.67399,-3.14432 -0.0796,-3.37239 0.20989,-0.0805 0.50018,-0.0608 0.6451,0.0435 0.93448,0.67465 2.97223,1.08747 5.30698,1.07525 2.2307,-0.0117 2.60697,-0.0796 3.98788,-0.71976 0.83863,-0.38878 1.93515,-1.0383 2.43671,-1.44332 1.04269,-0.84201 1.79663,-0.92551 2.68786,-0.29789 2.04856,1.44277 4.90814,2.36932 7.32507,2.37346 2.1636,0.007 3.58405,-0.44003 5.61309,-1.75336 0.83863,-0.54281 1.64396,-1.05419 1.78964,-1.13638 0.14568,-0.0822 0.72627,0.21791 1.2902,0.66685 0.56393,0.44901 1.7833,1.13348 2.70973,1.52116 1.38928,0.58127 2.00578,0.70422 3.51871,0.70173 2.4434,-0.007 5.59041,-1.01558 7.65201,-2.45959 0.75685,-0.53009 1.50402,-0.42808 2.46503,0.33671 2.94741,2.34562 7.26207,2.93989 10.92425,1.50472 1.08662,-0.42587 1.45087,-0.48493 1.59458,-0.25859 0.23435,0.36903 0.24506,2.78413 0.0139,3.13617 -0.33976,0.51746 -2.54383,1.69839 -3.89906,2.08904 -1.4962,0.43133 -2.98203,0.35356 -4.77405,-0.24989 -1.20536,-0.40591 -1.6363,-0.64662 -3.41782,-1.90911 -1.53457,-1.08741 -1.63234,-1.08437 -3.18382,0.0988 -1.69245,1.2906 -4.18869,2.17088 -6.12717,2.16065 -2.14567,-0.011 -5.64114,-1.25172 -7.49352,-2.65912 -0.44437,-0.3376 -0.90603,-0.61388 -1.02591,-0.61388 -0.11986,0 -1.00088,0.4754 -1.95782,1.05633 -4.86705,2.95487 -8.90239,2.9133 -13.17495,-0.13579 -1.33689,-0.95403 -1.64699,-0.96481 -2.62086,-0.0909 -1.50234,1.34814 -4.90785,2.71196 -6.6762,2.6737 -0.3922,-0.008 -1.26506,-0.16418 -1.93968,-0.34583 z"
         style="fill:#ffffff" />
    </g>
    <path
       style="fill:#ffffff"
       d="m 98.217709,146.85129 c -4.19225,-1.1479 -7.10549,-3.82637 -8.6379,-7.94185 l -0.60933,-1.63641 0,-2.21681 0,-2.21681 0.60933,-1.63642 c 0.78299,-2.10283 2.17708,-4.16389 3.62207,-5.35497 l 1.14236,-0.94163 0.11818,-13.63971 0.11819,-13.639711 0.58367,-1.05803 c 0.7743,-1.40358 2.67823,-3.04466 3.80811,-3.28236 0.49986,-0.10516 1.162131,-0.24074 1.471721,-0.3013 0.30959,-0.0606 1.23819,0.0339 2.06357,0.20996 l 1.50068,0.32006 1.32515,1.28601 1.32515,1.28602 0.35235,1.26888 0.35235,1.26887 0.004,12.975471 0.004,12.97547 1.14799,0.78174 c 1.41306,0.96225 2.75351,2.68272 3.79761,4.87423 l 0.79254,1.66354 0.0398,3.16069 0.0398,3.16069 -0.80471,1.66352 c -1.75889,3.636 -4.56823,6.00821 -8.24304,6.96044 -2.40189,0.62239 -3.68064,0.62466 -5.923941,0.0103 z m 6.362251,-5.33339 c 1.60209,-0.99728 2.48647,-1.90706 3.20874,-3.30099 l 0.68958,-1.33082 0.006,-1.99622 0.006,-1.99623 -0.62277,-0.99811 c -1.02015,-1.63499 -1.93307,-2.52657 -3.07838,-3.00643 l -1.08129,-0.45303 0,-14.24923 0,-14.249231 -0.56295,-0.82261 c -0.30962,-0.45244 -0.72135,-0.93262 -0.91494,-1.06705 -0.63673,-0.44217 -2.00089,-0.25106 -2.847271,0.39889 l -0.83176,0.63872 -0.16635,14.737241 -0.16635,14.73724 -0.88296,0.42292 c -1.28349,0.61478 -2.85364,2.53645 -3.25584,3.98474 -0.44302,1.59532 -0.44031,2.5914 0.0115,4.21866 l 0.3605,1.29838 1.38434,1.45984 1.38434,1.45987 1.33082,0.49127 1.33082,0.49131 1.870751,-0.13661 1.87075,-0.13664 0.95723,-0.59588 z m -1.88861,-1.65899 -0.43205,-0.52059 0.89036,-1.75844 0.89037,-1.75841 0,-1.22152 0,-1.22152 0.78968,-0.35982 0.78967,-0.35979 0.7075,0.37865 0.70749,0.37862 0,1.57359 0,1.57356 -0.68971,1.32589 c -1.1945,2.29629 -2.70596,3.11125 -3.65331,1.96978 z m -3.641881,-32.0462 0,-6.98173 0.31677,-0.833191 c 0.389,-1.02315 1.334181,-1.56705 2.289201,-1.31731 l 0.71732,0.18758 0.35166,1.209331 0.35167,1.20933 -0.10026,6.65409 -0.10026,6.65408 -1.91305,0.0998 -1.913051,0.0998 0,-6.98174 z m -19.15331,28.15845 c -1.10707,-1.31013 -2.47247,-4.29237 -2.47247,-5.40029 0,-0.44364 0.16111,-1.16022 0.35802,-1.5924 l 0.35802,-0.78577 3.48874,0.0353 3.48874,0.0353 0.30695,0.48526 c 0.3976,0.62857 0.40449,2.82462 0.0112,3.56728 -0.16827,0.31777 -0.63188,1.25147 -1.03024,2.07491 -0.99404,2.05472 -1.60473,2.66164 -2.67826,2.66164 l -0.91698,0 -0.91371,-1.08129 z m -15.115754,-5.40708 -0.47375,-0.57083 0.0716,-1.64542 c 0.0394,-0.90499 0.29581,-2.079 0.56984,-2.60892 0.27403,-0.52992 0.498243,-1.17999 0.498243,-1.44461 0,-0.54551 2.15006,-2.54627 2.73629,-2.54627 0.21131,0 1.06697,0.71121 1.90147,1.58046 0.8345,0.86925 1.966421,1.90205 2.515381,2.29512 l 0.99811,0.71467 -0.6654,1.27278 -0.66541,1.27279 -1.903831,0.97155 -1.90383,0.97156 -1.60248,0.15398 -1.602483,0.15397 -0.47374,-0.57083 z m 13.304424,-4.42947 c -1.19177,-0.33346 -2.83865,-1.00053 -3.65975,-1.48237 -3.018531,-1.77135 -6.014741,-5.78672 -6.699101,-8.97775 l -0.36791,-1.71553 0.16552,-2.90309 0.16553,-2.90309 1.23617,-2.26856 c 0.67989,-1.24771 1.85958,-2.91369 2.62153,-3.70217 l 1.385361,-1.43361 2.34034,-1.159981 2.34033,-1.15998 1.98482,-0.27686 1.98482,-0.27686 1.82988,0.26407 c 3.24324,0.46804 6.0728,1.80588 8.06808,3.814671 l 0.91493,0.92113 0,9.56297 0,9.56298 -1.41399,1.15544 c -2.55662,2.08912 -5.3018,3.18704 -8.56714,3.42638 l -2.16257,0.15851 -2.16685,-0.6063 z M 60.106855,115.34348 c -1.16362,-0.59471 -2.41059,-1.48869 -2.77104,-1.98662 l -0.65537,-0.90532 0.37781,-0.82919 c 0.44133,-0.96863 2.56317,-2.38655 4.62019,-3.08744 l 1.4451,-0.4924 1.24457,0.29425 1.244573,0.29425 0.0433,3.69691 0.0433,3.69691 -0.999843,0.19997 c -1.75934,0.35187 -2.43247,0.22269 -4.59261,-0.88132 z m 6.597033,-13.5206 -1.09454,-0.96102 -0.603133,-1.783801 c -0.33173,-0.98108 -0.611,-2.44636 -0.6206,-3.25616 l -0.0175,-1.47236 0.62226,-0.46603 0.622263,-0.46602 1.24674,0.15991 c 0.68571,0.0879 2.18313,0.5981 3.32759,1.13366 l 2.080851,0.97375 0.66486,1.25413 0.66486,1.25413 -1.14709,0.88142 c -0.6309,0.48478 -1.750061,1.517711 -2.487021,2.295411 -0.73696,0.77769 -1.52558,1.41399 -1.75249,1.41399 -0.22691,0 -0.90511,-0.43246 -1.5071,-0.96101 z m 24.272971,-2.585051 -1.25218,-0.89182 0.21904,-0.69222 c 0.33452,-1.05719 1.20056,-2.10364 2.07878,-2.51181 0.43536,-0.20235 0.85241,-0.30708 0.92676,-0.23272 0.0744,0.0743 -0.0573,1.27935 -0.29252,2.67778 l -0.42771,2.542601 -1.25217,-0.891811 z m -13.18601,-3.66433 c -0.44712,-0.98131 -0.47275,-2.24768 -0.0612,-3.02478 0.16827,-0.31775 0.63128,-1.25145 1.02892,-2.07489 0.94856,-1.9643 1.93227,-2.99434 2.85966,-2.99434 l 0.75149,0 1.12966,1.41399 c 1.85947,2.3275 2.71551,5.39708 1.91978,6.8839 l -0.32215,0.60195 -3.46949,0 -3.46949,0 -0.36716,-0.80583 z"
       id="path3621"
       inkscape:connector-curvature="0" />
    <g
       id="g3651"
       style="fill:#ffffff"
       transform="translate(-25.427128,-765.45413)">
      <path
         inkscape:connector-curvature="0"
         id="path3517"
         d="m 351.28358,890.79002 c -1.84894,-0.15254 -3.89564,-0.41013 -4.54821,-0.5724 -5.5357,-1.37676 -11.71896,-4.27326 -15.83713,-7.41877 -2.49339,-1.90448 -7.27217,-6.68661 -7.98938,-7.99499 -0.34889,-0.63646 -0.22133,-1.03741 0.70025,-2.20099 4.88814,-6.17179 12.61841,-11.39957 20.16004,-13.63372 11.83927,-3.5073 24.58281,-1.52393 34.96212,5.44139 2.94514,1.97642 6.1006,4.84257 8.43984,7.66605 l 1.67707,2.02422 -0.85056,1.13614 c -1.50525,2.01064 -5.61034,6.0916 -7.63487,7.59 -1.8736,1.38669 -6.06332,4.02677 -6.39033,4.02677 -0.0848,0 -0.90859,0.34108 -1.8307,0.75793 -6.17563,2.79189 -12.97812,3.82845 -20.85814,3.17837 z m 9.78855,-3.92803 c 1.14199,-0.49315 2.07635,-1.04221 2.07635,-1.22011 0,-0.71028 -0.73444,-0.69623 -2.10872,0.0403 -1.33896,0.71763 -1.56771,0.73135 -3.12852,0.18766 -0.92617,-0.32265 -2.31175,-0.58921 -3.07906,-0.59237 -2.56628,-0.0106 -4.04926,2.01948 -1.8343,2.51101 1.90234,0.42215 6.05454,-0.0543 8.07425,-0.92653 z m -11.27954,-2.48011 c 1.01275,-0.78516 2.28199,-3.37655 2.28199,-4.65911 0,-0.64596 0.17797,-1.17446 0.39549,-1.17446 0.21753,0 0.3955,0.26696 0.3955,0.59324 0,0.32629 0.17797,0.59325 0.3955,0.59325 0.5236,0 0.50889,-1.06973 -0.0192,-1.39611 -0.28225,-0.17444 -0.26297,-0.43912 0.0604,-0.82872 0.38508,-0.464 0.2389,-0.80332 -0.77179,-1.79145 -1.82849,-1.78769 -1.6777,-2.62358 0.20599,-1.14188 0.8093,0.6366 1.1193,0.69002 1.74324,0.30036 0.96394,-0.60199 0.9588,-0.64331 -0.2553,-2.05508 -1.44614,-1.68159 -0.40083,-1.79365 1.14416,-0.12265 1.24847,1.35028 3.47129,2.68506 4.47147,2.68506 0.28872,0 0.63661,-0.44493 0.7731,-0.98874 0.36401,-1.45032 1.12976,-1.20829 1.95298,0.61728 0.62448,1.38487 1.57926,2.34895 2.32626,2.34895 0.11762,0 0.10866,-0.52598 -0.0199,-1.16884 -0.24474,-1.22369 0.24489,-2.00912 1.56397,-2.50884 0.39446,-0.14944 0.61635,-0.43487 0.49309,-0.6343 -0.12325,-0.19943 -0.11375,-0.65016 0.0211,-1.00163 0.17671,-0.4605 0.3834,-0.52435 0.7398,-0.22856 0.3501,0.29055 0.62921,0.24826 0.95539,-0.14477 1.05495,-1.27113 -1.67586,-5.9925 -4.88076,-8.43847 -1.81002,-1.38139 -5.99312,-2.88095 -8.03657,-2.88095 -1.60033,0 -5.51735,1.07752 -5.84516,1.60793 -0.12562,0.20325 0.18254,0.37228 0.68481,0.37561 1.2193,0.008 1.83858,0.44373 2.53273,1.78172 0.62157,1.19806 0.46351,1.53144 -0.92492,1.95086 -0.70104,0.21177 -0.83749,0.13805 -0.6498,-0.35105 0.27998,-0.72961 0.12237,-0.74284 -2.63026,-0.22082 -2.47437,0.46926 -2.62993,0.57755 -1.97069,1.37189 0.56313,0.67852 2.20582,0.81058 2.57866,0.20731 0.13444,-0.21753 0.45004,-0.3955 0.70134,-0.3955 0.25601,0 0.15266,0.30432 -0.23503,0.69212 -0.41332,0.41343 -1.32104,0.70201 -2.25428,0.71669 -1.03774,0.0163 -1.87161,0.31512 -2.4834,0.88987 -0.50659,0.47591 -1.22105,0.86529 -1.58769,0.86529 -0.60538,0 -0.85102,0.45463 -0.70624,1.30706 0.0297,0.17507 -0.21614,0.7041 -0.54641,1.17562 -0.72408,1.03377 -0.76611,2.81914 -0.12295,5.22383 0.45724,1.70956 0.53976,1.78541 1.94233,1.78541 1.71566,0 3.26667,1.51999 3.72335,3.64887 0.44487,2.07382 0.71707,2.27804 1.85772,1.39371 z m -4.34258,-12.41483 c -0.92448,-0.33198 -1.68086,-0.74449 -1.68086,-0.9167 0,-0.70303 2.4477,-0.77275 3.97034,-0.11309 2.89123,1.25257 0.86672,2.16317 -2.28948,1.02979 z m 20.63617,11.1015 c 1.24205,-1.24206 2.71789,-4.16431 2.3094,-4.5728 -0.48796,-0.48796 -4.72657,0.65204 -5.74147,1.54421 -0.70095,0.61619 -0.89022,1.88238 -0.45205,3.02421 0.32011,0.83421 3.05121,0.83728 3.88412,0.004 z m 3.31667,-8.78192 c -0.0683,-0.59264 -0.30214,-1.03857 -0.51967,-0.99095 -0.48702,0.10662 -0.74352,1.91855 -0.39839,2.81418 0.23276,0.60402 0.28657,0.60041 0.64804,-0.0435 0.2168,-0.38622 0.33832,-1.1871 0.27002,-1.77974 z m -24.58369,-6.63154 c 0.34483,-0.89859 -0.13005,-1.15715 -0.83343,-0.45377 -0.7726,0.7726 -0.77436,1.06408 -0.006,1.06408 0.33312,0 0.71105,-0.27464 0.83986,-0.61031 z m 1.3309,-2.36548 c 0.27516,-0.33154 0.39023,-0.71285 0.25573,-0.84735 -0.28724,-0.28725 -1.45015,0.59734 -1.45015,1.10309 0,0.54477 0.6446,0.40676 1.19442,-0.25574 z"
         style="fill:#ffffff" />
      <path
         sodipodi:nodetypes="cscccccccccccccc"
         style="fill:#ffffff"
         d="m 325.7069,912.48157 c -0.99674,-0.1444 -1.06467,-0.2761 -1.06467,-2.0644 l 0,-1.91 30.39148,0 30.39148,0 0,1.8863 0,1.8863 -1.55991,0.2494 c -1.64284,0.2627 -56.32569,0.2179 -58.15838,-0.048 z m -0.58073,-7.32805 c -0.74761,-0.30166 -0.63758,-3.86045 0.12846,-4.15441 0.80023,-0.30707 58.75792,-0.30707 59.55817,0 0.86528,0.33206 0.86528,3.8438 0,4.17582 -0.73211,0.28096 -58.98913,0.26005 -59.68663,-0.0213 z"
         id="path3638"
         inkscape:connector-curvature="0" />
    </g>
  </g>
</svg>
