<?xml version="1.0" encoding="UTF-8" standalone="no"?>
<!-- Created with Inkscape (http://www.inkscape.org/) -->

<svg
   xmlns:dc="http://purl.org/dc/elements/1.1/"
   xmlns:cc="http://creativecommons.org/ns#"
   xmlns:rdf="http://www.w3.org/1999/02/22-rdf-syntax-ns#"
   xmlns:svg="http://www.w3.org/2000/svg"
   xmlns="http://www.w3.org/2000/svg"
   xmlns:sodipodi="http://sodipodi.sourceforge.net/DTD/sodipodi-0.dtd"
   xmlns:inkscape="http://www.inkscape.org/namespaces/inkscape"
   width="36.657143mm"
   height="47.34127mm"
   viewBox="0 0 129.88751 167.74466"
   id="svg2"
   version="1.1"
   inkscape:version="0.91 r13725"
   sodipodi:docname="biosphere-icon.svg">
  <defs
     id="defs4" />
  <sodipodi:namedview
     id="base"
     pagecolor="#ffffff"
     bordercolor="#666666"
     borderopacity="1.0"
     inkscape:pageopacity="0.0"
     inkscape:pageshadow="2"
     inkscape:zoom="1.4"
     inkscape:cx="-10.454247"
     inkscape:cy="65.800962"
     inkscape:document-units="px"
     inkscape:current-layer="layer1"
     showgrid="false"
     fit-margin-top="2"
     fit-margin-left="2"
     fit-margin-right="2"
     fit-margin-bottom="2"
     inkscape:window-width="1920"
     inkscape:window-height="1152"
     inkscape:window-x="1600"
     inkscape:window-y="0"
     inkscape:window-maximized="1" />
  <metadata
     id="metadata7">
    <rdf:RDF>
      <cc:Work
         rdf:about="">
        <dc:format>image/svg+xml</dc:format>
        <dc:type
           rdf:resource="http://purl.org/dc/dcmitype/StillImage" />
        <dc:title></dc:title>
      </cc:Work>
    </rdf:RDF>
  </metadata>
  <g
     inkscape:label="Layer 1"
     inkscape:groupmode="layer"
     id="layer1"
     transform="translate(-141.95677,-16.562813)">
    <rect
       y="23.649427"
       x="149.04338"
       height="153.57143"
       width="115.71429"
       id="rect3349"
       style="color:#000000;clip-rule:nonzero;display:inline;overflow:visible;visibility:visible;opacity:1;isolation:auto;mix-blend-mode:normal;color-interpolation:sRGB;color-interpolation-filters:linearRGB;solid-color:#000000;solid-opacity:1;fill:#47763f;fill-opacity:1;fill-rule:nonzero;stroke:none;stroke-width:4;stroke-linecap:round;stroke-linejoin:round;stroke-miterlimit:4;stroke-dasharray:none;stroke-dashoffset:0;stroke-opacity:1;color-rendering:auto;image-rendering:auto;shape-rendering:auto;text-rendering:auto;enable-background:accumulate" />
    <g
       id="g3385"
       transform="matrix(0.97491974,0,0,0.97491974,98.049389,-680.58333)">
      <text
         xml:space="preserve"
         style="font-style:normal;font-variant:normal;font-weight:normal;font-stretch:normal;font-size:70px;line-height:125%;font-family:Anatolian;-inkscape-font-specification:Anatolian;text-align:start;letter-spacing:0px;word-spacing:0px;writing-mode:lr-tb;text-anchor:start;fill:#ffffff;fill-opacity:1;stroke:none;stroke-width:1px;stroke-linecap:butt;stroke-linejoin:miter;stroke-opacity:1"
         x="79.097145"
         y="763.80859"
         id="text3387"
         sodipodi:linespacing="125%"><tspan
           sodipodi:role="line"
           id="tspan3389"
           x="79.097145"
           y="763.80859"
           style="font-style:normal;font-variant:normal;font-weight:normal;font-stretch:condensed;font-size:41.0290184px;font-family:'Universalis ADF Cd Std';-inkscape-font-specification:'Universalis ADF Cd Std Condensed';text-align:end;text-anchor:end;fill:#ffffff">2</tspan></text>
      <text
         sodipodi:linespacing="125%"
         id="text3391"
         y="747.72095"
         x="82.05146"
         style="font-style:normal;font-variant:normal;font-weight:normal;font-stretch:normal;font-size:70px;line-height:125%;font-family:Anatolian;-inkscape-font-specification:Anatolian;text-align:start;letter-spacing:0px;word-spacing:0px;writing-mode:lr-tb;text-anchor:start;fill:#ffffff;fill-opacity:1;stroke:none;stroke-width:1px;stroke-linecap:butt;stroke-linejoin:miter;stroke-opacity:1"
         xml:space="preserve"><tspan
           style="font-style:normal;font-variant:normal;font-weight:bold;font-stretch:condensed;font-size:17.5px;font-family:'Universalis ADF Cd Std';-inkscape-font-specification:'Universalis ADF Cd Std Bold Condensed';fill:#ffffff"
           y="747.72095"
           x="82.05146"
           id="tspan3393"
           sodipodi:role="line">Biosphere</tspan></text>
    </g>
    <g
       id="g3644"
       style="fill:#ffffff"
       transform="translate(-24.712843,-834.02556)">
      <path
         inkscape:connector-curvature="0"
         id="path3532"
         d="m 233.78894,999.28641 c 1.01692,-0.17489 2.85104,-0.66262 3.49821,-0.93026 1.84557,-0.76333 3.60146,-1.70482 5.37461,-2.88189 1.99034,-1.32127 2.60131,-1.57703 2.60131,-1.08893 0,0.1373 0.57363,0.88763 1.27474,1.66741 1.63445,1.81791 3.87751,3.12045 5.37364,3.12045 l 1.12303,0 -0.75007,-1.46929 c -1.19019,-2.33133 -1.56449,-3.82636 -1.55898,-6.2268 0.005,-2.23625 0.17099,-2.8961 1.42647,-5.67475 0.88314,-1.95458 0.86099,-2.12947 -0.24222,-1.91194 -2.27834,0.44927 -5.41109,2.73046 -6.57976,4.79123 -0.28669,0.50553 -0.37485,0.51929 -0.96085,0.14988 -4.76231,-3.00204 -6.64396,-3.93452 -9.4044,-4.66049 -3.8939,-1.02407 -8.15806,0.0427 -11.99081,2.99959 -1.64545,1.26946 -4.29721,4.04002 -4.29721,4.48974 0,0.56093 3.27388,3.70091 5.17736,4.96555 1.87397,1.24506 2.44815,1.55521 4.09197,2.21022 0.82729,0.32963 4.77523,0.63378 5.84296,0.45028 z m -7.34625,-7.59463 c -0.76144,-0.6862 -0.63353,-2.15989 0.24763,-2.85301 0.40556,-0.31902 0.95529,-0.58003 1.22162,-0.58003 0.93865,0 1.959,1.09324 1.959,2.09893 0,1.81194 -2.02402,2.59961 -3.42825,1.33411 z"
         style="fill:#ffffff" />
      <path
         sodipodi:nodetypes="cccsccscccsscssssscccssscsscccssssssscccsccccsssscccsccsssssccc"
         inkscape:connector-curvature="0"
         id="path3558"
         d="m 221.82512,951.86185 c -0.23822,-0.44511 -0.3676,-2.37577 -0.30399,-4.53541 l 0.1108,-3.76037 1.26653,-0.36238 c 0.85433,-0.24444 1.57881,-0.22008 2.22613,0.0748 0.92154,0.41989 0.9594,0.57956 0.95433,4.02669 -0.007,5.08975 -0.10531,5.33165 -2.15559,5.33165 -1.28771,0 -1.78094,-0.18218 -2.09821,-0.77503 z m -9.0977,-11.80116 c -1.49275,-0.65715 -2.96712,-2.34465 -3.58116,-4.09886 -0.6399,-1.82804 -0.61083,-2.79273 0.1576,-5.23046 l 0.64154,-2.0352 -1.01838,-1.21028 c -1.51035,-1.79495 -2.04416,-3.9112 -1.46998,-5.82764 0.57883,-1.93196 2.50569,-4.17912 3.86169,-4.50362 2.14958,-0.5144 3.10957,-1.264 3.36544,-2.62794 0.28386,-1.51312 2.76264,-4.30202 4.75299,-5.34769 1.76971,-0.92974 5.46644,-0.90104 7.33995,0.057 3.64516,1.86391 5.20232,4.56638 5.07832,8.81336 l -0.0848,2.90169 1.7058,1.00717 c 1.92318,1.13551 2.71537,1.92992 4.1471,4.15873 0.8565,1.33331 0.99471,1.97921 0.99432,4.64583 -2.7e-4,1.86133 -0.20883,3.48344 -0.52265,4.0651 -1.15612,2.14299 -2.96087,3.92954 -4.89284,4.84351 -1.98888,0.94088 -2.24258,0.96303 -10.67542,0.9322 -6.25294,-0.0228 -8.95883,-0.17276 -9.79957,-0.54288 z m 39.68314,-4.64797 c -1.94803,-1.32135 -4.99651,-1.96973 -6.61249,-1.40641 -1.91845,0.66878 -2.29078,-0.0559 -0.76226,-1.48374 1.67107,-1.56102 4.97599,-1.78346 7.86237,-0.52919 1.227,0.53318 1.62209,0.55434 2.51649,0.13475 2.92204,-1.37084 6.13455,-1.2963 7.99285,0.18546 1.53866,1.22688 1.17535,2.28127 -0.5757,1.67085 -1.5749,-0.54902 -4.39016,0.0609 -6.53715,1.4162 -1.872,1.18174 -2.15837,1.18263 -3.88411,0.0121 z m -7.18168,-15.64593 c -0.20229,-0.1921 -1.15882,-0.61318 -2.12566,-0.93575 -1.40583,-0.46903 -2.08176,-0.50002 -3.37535,-0.15473 -2.15222,0.57445 -2.45103,0.13417 -0.93625,-1.37951 1.12495,-1.12417 1.46847,-1.24459 3.51724,-1.23301 1.31783,0.007 2.53449,0.23188 2.89962,0.53489 0.53717,0.44583 0.97516,0.36673 2.99939,-0.54168 2.20324,-0.98877 2.47944,-1.02773 3.91845,-0.55281 2.97139,0.98066 3.48061,2.56947 0.75727,2.36279 -1.60274,-0.12163 -5.50601,1.23211 -5.50601,1.9096 0,0.44619 -1.67657,0.43855 -2.1487,-0.01 z m 10.01339,-7.3317 c -1.41074,-1.41073 -2.52775,-1.99784 -3.80106,-1.99784 -0.8366,0 -0.998,-0.15681 -0.89653,-0.8711 0.10573,-0.74456 0.393,-0.88832 1.97765,-0.9897 1.52639,-0.0977 2.06171,0.0562 3.03013,0.87109 0.94953,0.79898 1.58655,0.98971 3.30563,0.98971 1.83735,0 2.28462,0.15521 3.26106,1.13167 0.62243,0.62243 1.13169,1.3193 1.13169,1.54861 0,0.5255 -1.42082,0.54979 -1.74219,0.0298 -0.30961,-0.50096 -3.51419,-0.50205 -4.44943,-0.002 -0.57318,0.30675 -0.94488,0.16135 -1.81695,-0.71071 z"
         style="fill:#ffffff" />
      <path
         inkscape:connector-curvature="0"
         id="path3636"
         d="m 208.92923,976.30481 c -1.06827,-0.3872 -2.78047,-1.35532 -3.34278,-1.89012 -0.56017,-0.53272 -0.6451,-0.79401 -0.6451,-1.98446 0,-0.92966 0.10121,-1.40975 0.31441,-1.4916 0.17294,-0.0663 0.93825,0.1217 1.70072,0.41786 1.17055,0.45475 1.8244,0.53853 4.20127,0.53853 2.69161,0 2.88179,-0.0332 4.33975,-0.74967 0.83862,-0.41233 1.98069,-1.09625 2.53792,-1.51977 l 1.01316,-0.77011 0.7462,0.4343 c 3.68611,2.14518 5.16012,2.61298 8.1355,2.58211 1.87321,-0.0193 2.44669,-0.12156 3.59681,-0.64075 0.75256,-0.33974 1.77856,-0.94264 2.28001,-1.33978 0.50144,-0.39714 1.09966,-0.73219 1.32938,-0.74455 0.22972,-0.0124 0.99827,0.37642 1.70788,0.86411 1.85603,1.27541 3.1222,1.75909 5.02629,1.92009 2.54806,0.21536 5.26356,-0.51352 7.95833,-2.13628 1.48791,-0.89595 1.61156,-0.88648 3.20146,0.24416 1.62569,1.15613 3.01819,1.71842 4.81124,1.94275 1.9323,0.24174 4.15879,-0.0152 5.95745,-0.68854 1.52453,-0.57037 1.6553,-0.45703 1.66051,1.43931 0.003,1.07705 -0.092,1.38972 -0.54086,1.77995 -1.49277,1.29793 -3.35069,1.95698 -5.51681,1.95698 -2.47686,0 -3.81144,-0.56629 -7.4295,-3.15261 -0.21701,-0.15513 -0.83384,0.13468 -2.08356,0.97897 -1.72209,1.16338 -3.20202,1.75005 -5.22791,2.07232 -1.94412,0.30928 -6.05544,-1.00356 -8.2115,-2.62217 -0.95033,-0.71348 -1.39489,-0.70505 -2.50197,0.047 -1.5913,1.08126 -3.51278,1.91126 -5.37948,2.32352 -1.56112,0.34479 -2.04417,0.36185 -3.33721,0.11783 -1.75528,-0.33118 -3.8324,-1.26802 -5.13263,-2.31495 -0.50156,-0.40384 -1.02207,-0.73427 -1.15668,-0.73427 -0.13461,0 -1.09653,0.56346 -2.13762,1.25207 -2.49223,1.64852 -3.60412,2.03647 -5.7713,2.01354 -0.96332,-0.0104 -1.90985,-0.0759 -2.10338,-0.14601 z m 0.0636,-9.34533 c -1.26297,-0.34016 -2.77962,-1.1819 -3.59031,-1.99255 -0.6143,-0.61429 -0.67399,-3.14432 -0.0796,-3.37239 0.20989,-0.0805 0.50018,-0.0608 0.6451,0.0435 0.93448,0.67465 2.97223,1.08747 5.30698,1.07525 2.2307,-0.0117 2.60697,-0.0796 3.98788,-0.71976 0.83863,-0.38878 1.93515,-1.0383 2.43671,-1.44332 1.04269,-0.84201 1.79663,-0.92551 2.68786,-0.29789 2.04856,1.44277 4.90814,2.36932 7.32507,2.37346 2.1636,0.007 3.58405,-0.44003 5.61309,-1.75336 0.83863,-0.54281 1.64396,-1.05419 1.78964,-1.13638 0.14568,-0.0822 0.72627,0.21791 1.2902,0.66685 0.56393,0.44901 1.7833,1.13348 2.70973,1.52116 1.38928,0.58127 2.00578,0.70422 3.51871,0.70173 2.4434,-0.007 5.59041,-1.01558 7.65201,-2.45959 0.75685,-0.53009 1.50402,-0.42808 2.46503,0.33671 2.94741,2.34562 7.26207,2.93989 10.92425,1.50472 1.08662,-0.42587 1.45087,-0.48493 1.59458,-0.25859 0.23435,0.36903 0.24506,2.78413 0.0139,3.13617 -0.33976,0.51746 -2.54383,1.69839 -3.89906,2.08904 -1.4962,0.43133 -2.98203,0.35356 -4.77405,-0.24989 -1.20536,-0.40591 -1.6363,-0.64662 -3.41782,-1.90911 -1.53457,-1.08741 -1.63234,-1.08437 -3.18382,0.0988 -1.69245,1.2906 -4.18869,2.17088 -6.12717,2.16065 -2.14567,-0.011 -5.64114,-1.25172 -7.49352,-2.65912 -0.44437,-0.3376 -0.90603,-0.61388 -1.02591,-0.61388 -0.11986,0 -1.00088,0.4754 -1.95782,1.05633 -4.86705,2.95487 -8.90239,2.9133 -13.17495,-0.13579 -1.33689,-0.95403 -1.64699,-0.96481 -2.62086,-0.0909 -1.50234,1.34814 -4.90785,2.71196 -6.6762,2.6737 -0.3922,-0.008 -1.26506,-0.16418 -1.93968,-0.34583 z"
         style="fill:#ffffff" />
    </g>
  </g>
</svg>
