<?xml version="1.0" encoding="UTF-8" standalone="no"?>
<!-- Created with Inkscape (http://www.inkscape.org/) -->

<svg
   xmlns:dc="http://purl.org/dc/elements/1.1/"
   xmlns:cc="http://creativecommons.org/ns#"
   xmlns:rdf="http://www.w3.org/1999/02/22-rdf-syntax-ns#"
   xmlns:svg="http://www.w3.org/2000/svg"
   xmlns="http://www.w3.org/2000/svg"
   xmlns:sodipodi="http://sodipodi.sourceforge.net/DTD/sodipodi-0.dtd"
   xmlns:inkscape="http://www.inkscape.org/namespaces/inkscape"
   width="47.365715mm"
   height="47.365715mm"
   viewBox="0 0 167.83127 167.83127"
   id="svg3363"
   version="1.1"
   inkscape:version="0.91 r13725"
   sodipodi:docname="scen-environment.svg">
  <defs
     id="defs3365" />
  <sodipodi:namedview
     id="base"
     pagecolor="#e3e3e3"
     bordercolor="#666666"
     borderopacity="1.0"
     inkscape:pageopacity="0"
     inkscape:pageshadow="2"
     inkscape:zoom="2.8"
     inkscape:cx="-96.622844"
     inkscape:cy="36.22962"
     inkscape:document-units="px"
     inkscape:current-layer="layer1"
     showgrid="false"
     fit-margin-top="3"
     fit-margin-left="3"
     fit-margin-right="3"
     fit-margin-bottom="3"
     inkscape:window-width="1920"
     inkscape:window-height="1152"
     inkscape:window-x="1600"
     inkscape:window-y="2"
     inkscape:window-maximized="1" />
  <metadata
     id="metadata3368">
    <rdf:RDF>
      <cc:Work
         rdf:about="">
        <dc:format>image/svg+xml</dc:format>
        <dc:type
           rdf:resource="http://purl.org/dc/dcmitype/StillImage" />
        <dc:title></dc:title>
      </cc:Work>
    </rdf:RDF>
  </metadata>
  <g
     inkscape:label="Layer 1"
     inkscape:groupmode="layer"
     id="layer1"
     transform="translate(-215.74016,-448.43361)">
    <circle
       style="opacity:1;fill:#ffffff;fill-opacity:1;fill-rule:evenodd;stroke:#000000;stroke-width:8;stroke-linecap:round;stroke-linejoin:miter;stroke-miterlimit:4;stroke-dasharray:none;stroke-dashoffset:0;stroke-opacity:1"
       id="path4138-9"
       cx="299.65579"
       cy="532.34924"
       r="69.285713" />
    <g
       style="fill:#008000"
       id="g4322"
       transform="matrix(0.15823214,0,0,0.15823214,261.10662,485.79995)">
      <g
         style="fill:#008000"
         id="g4324">
        <path
           style="fill:#008000"
           id="path4326"
           d="m 188.222,245.648 c 2.453,0 5.013,-0.213 7.467,-0.533 16.64,-2.347 30.933,-12.373 42.667,-29.653 29.44,53.653 39.68,95.893 39.893,96.64 1.067,4.587 5.12,8 9.92,8.213 l 0.533,0 c 4.587,0 8.64,-2.88 10.133,-7.253 7.893,-21.12 18.347,-41.173 31.04,-59.733 12.48,23.787 28.373,31.787 40.213,34.027 2.987,0.533 5.973,0.853 9.067,0.853 17.173,0 35.52,-8.853 50.667,-24.64 27.947,-29.333 38.293,-109.547 19.413,-150.507 -2.453,-5.333 -8.853,-7.68 -14.187,-5.12 -0.64,0.32 -1.28,0.747 -1.92,1.173 -19.307,14.507 -36.8,18.987 -55.253,23.68 -16,4.053 -32.32,8.32 -48.96,19.2 -18.773,12.48 -29.973,30.507 -29.973,48.427 0,9.707 3.307,22.933 16.533,36.16 -9.493,13.227 -17.92,27.2 -25.067,41.813 -10.027,-28.373 -22.72,-55.68 -37.76,-81.813 24.853,-12.693 40,-29.547 44.693,-50.133 7.253,-31.36 -11.84,-59.84 -23.787,-73.92 -20.053,-23.68 -48.533,-30.507 -78.72,-37.76 -26.667,-6.4 -54.293,-13.013 -76.907,-32.213 -2.453,-2.133 -5.76,-2.987 -8.96,-2.347 -3.2,0.64 -5.867,2.667 -7.36,5.44 -29.547,55.787 -14.4,162.027 18.453,200.747 21.229,25.385 45.655,39.252 68.162,39.252 z m 152.533,-75.84 c 13.547,-8.96 27.52,-12.587 42.453,-16.427 15.467,-3.947 32.64,-8.427 50.88,-19.307 9.92,37.653 -1.173,95.36 -19.733,114.773 -9.92,10.347 -25.6,20.373 -40.213,17.6 -14.933,-2.88 -24.213,-18.773 -29.333,-31.573 -0.107,-0.107 -0.213,-0.32 -0.32,-0.427 12.267,-14.187 26.987,-27.2 44.587,-35.947 5.333,-2.56 7.467,-8.96 4.907,-14.293 -2.56,-5.333 -8.96,-7.467 -14.293,-4.907 0,0 -0.107,0 -0.107,0.107 -20.16,10.027 -36.8,24.64 -50.667,40.533 -4.907,-5.44 -8.64,-11.947 -8.64,-19.413 -0.001,-10.772 7.679,-22.292 20.479,-30.719 z M 115.262,27.515 c 23.893,16.107 50.56,22.507 74.56,28.267 27.84,6.613 51.84,12.373 67.52,30.72 16,18.88 23.04,39.04 19.307,55.36 -3.307,14.507 -15.147,26.773 -34.987,36.587 -23.467,-37.44 -52.053,-71.36 -84.907,-100.8 -4.267,-4.053 -11.093,-3.84 -15.04,0.533 -4.053,4.267 -3.84,11.093 0.533,15.04 0.107,0.107 0.213,0.213 0.427,0.32 36.16,32.32 63.467,67.947 83.733,100.907 -9.493,17.707 -20.693,27.733 -33.6,29.547 -16.853,2.453 -37.867,-9.28 -56.427,-31.04 C 110.142,162.128 96.915,78.181 115.262,27.515 Z"
           inkscape:connector-curvature="0" />
        <path
           style="fill:#008000"
           id="path4328"
           d="m 511.102,395.835 c -0.533,-1.173 -1.173,-2.133 -1.92,-2.88 l -2.453,-2.453 c -21.227,-21.333 -32.96,-33.067 -61.227,-24.96 l -93.227,26.133 c 0,-0.64 0.107,-1.28 0.107,-2.027 0,-18.56 -11.84,-37.333 -34.453,-37.333 -16.213,0 -28.053,0 -38.08,0.107 -14.827,0 -25.6,0.107 -40.747,0 l -2.24,-2.133 c -11.627,-11.2 -31.04,-29.867 -77.12,-29.867 l -52.8,0 0,-10.667 c 0,-5.867 -4.8,-10.667 -10.667,-10.667 l -85.333,0 c -5.867,0 -10.667,4.8 -10.667,10.667 l 0,160 c 0,5.867 4.8,10.667 10.667,10.667 l 85.333,0 c 5.867,0 10.667,-4.8 10.667,-10.667 l 0,-4.907 c 19.627,6.613 36.907,12.693 52.16,18.027 54.4,19.093 85.12,29.653 113.707,29.653 35.84,0 68.267,-16.64 139.733,-54.08 24.96,-13.12 56.107,-29.333 93.867,-48.32 5.226,-2.667 7.36,-9.067 4.693,-14.293 z m -425.493,63.146 -64,0 0,-138.666 64,0 0,138.666 z m 316.8,-19.52 c -121.28,63.573 -121.28,63.573 -236.373,23.253 -16.96,-5.973 -36.587,-12.8 -59.093,-20.373 l 0,-100.693 52.587,0 c 37.333,0 52.373,14.4 62.187,23.893 2.347,2.24 4.373,4.267 6.4,5.76 1.813,1.493 4.16,2.24 6.507,2.24 17.28,0.107 28.693,0.107 44.8,0.107 10.027,0 22.187,-0.107 38.507,-0.107 12.693,0 13.12,14.4 13.12,16 0.107,4.16 -1.173,8.32 -3.627,11.733 -2.24,2.88 -5.76,4.48 -9.493,4.267 l -114.669,0 c -5.333,0 -10.133,3.84 -10.88,9.067 -0.96,6.613 4.16,12.267 10.56,12.267 l 114.88,0 c 9.493,0.213 18.56,-3.733 24.853,-10.987 0.533,0 1.173,0 1.707,-0.107 l 106.667,-29.867 c 13.547,-3.84 18.347,-2.027 32.32,11.627 -32.107,16.214 -58.88,30.294 -80.96,41.92 z"
           inkscape:connector-curvature="0" />
      </g>
    </g>
  </g>
</svg>
