<?xml version="1.0" encoding="UTF-8" standalone="no"?>
<!-- Created with Inkscape (http://www.inkscape.org/) -->

<svg
   xmlns:dc="http://purl.org/dc/elements/1.1/"
   xmlns:cc="http://creativecommons.org/ns#"
   xmlns:rdf="http://www.w3.org/1999/02/22-rdf-syntax-ns#"
   xmlns:svg="http://www.w3.org/2000/svg"
   xmlns="http://www.w3.org/2000/svg"
   xmlns:sodipodi="http://sodipodi.sourceforge.net/DTD/sodipodi-0.dtd"
   xmlns:inkscape="http://www.inkscape.org/namespaces/inkscape"
   width="162.46175mm"
   height="61.688255mm"
   viewBox="0 0 575.65186 218.58043"
   id="svg2"
   version="1.1"
   inkscape:version="0.91 r13725"
   sodipodi:docname="biggis-scenarios.svg">
  <defs
     id="defs4" />
  <sodipodi:namedview
     id="base"
     pagecolor="#ffffff"
     bordercolor="#666666"
     borderopacity="1.0"
     inkscape:pageopacity="0.0"
     inkscape:pageshadow="2"
     inkscape:zoom="1.4"
     inkscape:cx="322.21138"
     inkscape:cy="20.032759"
     inkscape:document-units="px"
     inkscape:current-layer="layer1"
     showgrid="false"
     fit-margin-top="10"
     fit-margin-left="10"
     fit-margin-right="10"
     fit-margin-bottom="10"
     inkscape:window-width="1920"
     inkscape:window-height="1029"
     inkscape:window-x="0"
     inkscape:window-y="0"
     inkscape:window-maximized="1" />
  <metadata
     id="metadata7">
    <rdf:RDF>
      <cc:Work
         rdf:about="">
        <dc:format>image/svg+xml</dc:format>
        <dc:type
           rdf:resource="http://purl.org/dc/dcmitype/StillImage" />
        <dc:title></dc:title>
      </cc:Work>
    </rdf:RDF>
  </metadata>
  <g
     inkscape:label="Layer 1"
     inkscape:groupmode="layer"
     id="layer1"
     transform="translate(-15.924069,2.4994313)">
    <circle
       style="opacity:1;fill:none;fill-opacity:1;fill-rule:evenodd;stroke:#000000;stroke-width:8;stroke-linecap:round;stroke-linejoin:miter;stroke-miterlimit:4;stroke-dasharray:none;stroke-dashoffset:0;stroke-opacity:1"
       id="path4138"
       cx="124.64285"
       cy="106.21935"
       r="69.285713" />
    <path
       style="fill:#d80027"
       inkscape:connector-curvature="0"
       d="m 132.18223,82.708667 0,-13.67876 -6.83938,-6.83938 -6.83938,6.83938 0,4.559587 -13.67876,0 0,31.917106 41.03628,0 0,-22.797933 -13.67876,0 z m -18.23835,18.238343 -4.55959,0 0,-4.559583 4.55959,0 0,4.559583 z m 0,-9.11917 -4.55959,0 0,-4.559586 4.55959,0 0,4.559586 z m 0,-9.119173 -4.55959,0 0,-4.559587 4.55959,0 0,4.559587 z m 13.67876,18.238343 -4.55959,0 0,-4.559583 4.55959,0 0,4.559583 z m 0,-9.11917 -4.55959,0 0,-4.559586 4.55959,0 0,4.559586 z m 0,-9.119173 -4.55959,0 0,-4.559587 4.55959,0 0,4.559587 z m 0,-9.119173 -4.55959,0 0,-4.559587 4.55959,0 0,4.559587 z m 13.67876,27.357516 -4.55959,0 0,-4.559583 4.55959,0 0,4.559583 z m 0,-9.11917 -4.55959,0 0,-4.559586 4.55959,0 0,4.559586 z"
       id="path4179" />
    <path
       inkscape:connector-curvature="0"
       style="fill:#d40000;stroke-width:0.2;stroke-miterlimit:4;stroke-dasharray:none"
       d="m 147.16757,63.028578 c -6.16054,-6.075333 -14.32946,-9.354023 -22.9804,-9.234665 -17.50665,0.243089 -31.69304,14.690676 -31.624026,32.205845 0.0211,5.095507 1.200384,9.964164 3.507952,14.470862 3.882297,7.58176 5.934194,16.31816 5.934194,25.26473 l 0,10.18352 c 0,9.02377 6.90458,16.46391 15.7078,17.3188 0.77621,3.1039 3.58789,5.41027 6.92878,5.41027 3.34092,0 6.15256,-2.30613 6.92881,-5.41001 8.80421,-0.85395 15.70973,-8.29432 15.70973,-17.31906 l 0,-10.35591 c 0,-8.64078 2.10177,-17.41616 6.07801,-25.37682 2.23227,-4.469169 3.36438,-9.285526 3.36438,-14.31542 0,-8.65336 -3.39345,-16.765351 -9.55523,-22.842142 z m -3.51888,68.502712 0,3.63171 -38.01168,0 0,-3.63171 z m -24.24079,18.15848 c -3.58548,0 -6.85398,-1.37835 -9.30684,-3.63172 l 29.08383,0 c -2.45286,2.25337 -5.72139,3.63172 -9.30683,3.63172 z m -12.13278,-7.26338 c -0.60651,-1.12609 -1.05972,-2.3461 -1.33401,-3.63171 l 37.40304,0 c -0.2743,1.28561 -0.72755,2.50562 -1.33407,3.63171 z m 17.36675,12.58985 c -1.27059,0 -2.38237,-0.68084 -2.9988,-1.6948 l 5.99762,0 c -0.61642,1.01374 -1.7282,1.6948 -2.99882,1.6948 z M 150.1095,98.563254 c -4.22681,8.462076 -6.46101,17.798456 -6.46101,26.999706 l 0,2.33662 -38.01198,-4.8e-4 0,-2.16424 c 0,-9.5194 -2.18994,-18.82816 -6.33318,-26.919795 -2.045162,-3.993906 -3.09106,-8.310542 -3.108758,-12.830063 -0.061,-15.532027 12.518948,-28.344162 28.043008,-28.559644 7.68124,-0.104729 14.91704,2.801732 20.37985,8.189227 5.46422,5.388711 8.47344,12.582613 8.47344,20.256135 2.2e-4,4.461415 -1.00283,8.731812 -2.98137,12.692534 z"
       id="path4259"
       sodipodi:nodetypes="ccccsscscssssccccccsccsscccccsccscsccscccccc" />
    <circle
       style="opacity:1;fill:none;fill-opacity:1;fill-rule:evenodd;stroke:#000000;stroke-width:8;stroke-linecap:round;stroke-linejoin:miter;stroke-miterlimit:4;stroke-dasharray:none;stroke-dashoffset:0;stroke-opacity:1"
       id="path4138-9"
       cx="295"
       cy="106.21935"
       r="69.285713" />
    <g
       style="fill:#008000"
       id="g4322"
       transform="matrix(0.15823214,0,0,0.15823214,256.45081,59.670056)">
      <g
         style="fill:#008000"
         id="g4324">
        <path
           style="fill:#008000"
           id="path4326"
           d="m 188.222,245.648 c 2.453,0 5.013,-0.213 7.467,-0.533 16.64,-2.347 30.933,-12.373 42.667,-29.653 29.44,53.653 39.68,95.893 39.893,96.64 1.067,4.587 5.12,8 9.92,8.213 l 0.533,0 c 4.587,0 8.64,-2.88 10.133,-7.253 7.893,-21.12 18.347,-41.173 31.04,-59.733 12.48,23.787 28.373,31.787 40.213,34.027 2.987,0.533 5.973,0.853 9.067,0.853 17.173,0 35.52,-8.853 50.667,-24.64 27.947,-29.333 38.293,-109.547 19.413,-150.507 -2.453,-5.333 -8.853,-7.68 -14.187,-5.12 -0.64,0.32 -1.28,0.747 -1.92,1.173 -19.307,14.507 -36.8,18.987 -55.253,23.68 -16,4.053 -32.32,8.32 -48.96,19.2 -18.773,12.48 -29.973,30.507 -29.973,48.427 0,9.707 3.307,22.933 16.533,36.16 -9.493,13.227 -17.92,27.2 -25.067,41.813 -10.027,-28.373 -22.72,-55.68 -37.76,-81.813 24.853,-12.693 40,-29.547 44.693,-50.133 7.253,-31.36 -11.84,-59.84 -23.787,-73.92 -20.053,-23.68 -48.533,-30.507 -78.72,-37.76 -26.667,-6.4 -54.293,-13.013 -76.907,-32.213 -2.453,-2.133 -5.76,-2.987 -8.96,-2.347 -3.2,0.64 -5.867,2.667 -7.36,5.44 -29.547,55.787 -14.4,162.027 18.453,200.747 21.229,25.385 45.655,39.252 68.162,39.252 z m 152.533,-75.84 c 13.547,-8.96 27.52,-12.587 42.453,-16.427 15.467,-3.947 32.64,-8.427 50.88,-19.307 9.92,37.653 -1.173,95.36 -19.733,114.773 -9.92,10.347 -25.6,20.373 -40.213,17.6 -14.933,-2.88 -24.213,-18.773 -29.333,-31.573 -0.107,-0.107 -0.213,-0.32 -0.32,-0.427 12.267,-14.187 26.987,-27.2 44.587,-35.947 5.333,-2.56 7.467,-8.96 4.907,-14.293 -2.56,-5.333 -8.96,-7.467 -14.293,-4.907 0,0 -0.107,0 -0.107,0.107 -20.16,10.027 -36.8,24.64 -50.667,40.533 -4.907,-5.44 -8.64,-11.947 -8.64,-19.413 -0.001,-10.772 7.679,-22.292 20.479,-30.719 z M 115.262,27.515 c 23.893,16.107 50.56,22.507 74.56,28.267 27.84,6.613 51.84,12.373 67.52,30.72 16,18.88 23.04,39.04 19.307,55.36 -3.307,14.507 -15.147,26.773 -34.987,36.587 -23.467,-37.44 -52.053,-71.36 -84.907,-100.8 -4.267,-4.053 -11.093,-3.84 -15.04,0.533 -4.053,4.267 -3.84,11.093 0.533,15.04 0.107,0.107 0.213,0.213 0.427,0.32 36.16,32.32 63.467,67.947 83.733,100.907 -9.493,17.707 -20.693,27.733 -33.6,29.547 -16.853,2.453 -37.867,-9.28 -56.427,-31.04 C 110.142,162.128 96.915,78.181 115.262,27.515 Z"
           inkscape:connector-curvature="0" />
        <path
           style="fill:#008000"
           id="path4328"
           d="m 511.102,395.835 c -0.533,-1.173 -1.173,-2.133 -1.92,-2.88 l -2.453,-2.453 c -21.227,-21.333 -32.96,-33.067 -61.227,-24.96 l -93.227,26.133 c 0,-0.64 0.107,-1.28 0.107,-2.027 0,-18.56 -11.84,-37.333 -34.453,-37.333 -16.213,0 -28.053,0 -38.08,0.107 -14.827,0 -25.6,0.107 -40.747,0 l -2.24,-2.133 c -11.627,-11.2 -31.04,-29.867 -77.12,-29.867 l -52.8,0 0,-10.667 c 0,-5.867 -4.8,-10.667 -10.667,-10.667 l -85.333,0 c -5.867,0 -10.667,4.8 -10.667,10.667 l 0,160 c 0,5.867 4.8,10.667 10.667,10.667 l 85.333,0 c 5.867,0 10.667,-4.8 10.667,-10.667 l 0,-4.907 c 19.627,6.613 36.907,12.693 52.16,18.027 54.4,19.093 85.12,29.653 113.707,29.653 35.84,0 68.267,-16.64 139.733,-54.08 24.96,-13.12 56.107,-29.333 93.867,-48.32 5.226,-2.667 7.36,-9.067 4.693,-14.293 z m -425.493,63.146 -64,0 0,-138.666 64,0 0,138.666 z m 316.8,-19.52 c -121.28,63.573 -121.28,63.573 -236.373,23.253 -16.96,-5.973 -36.587,-12.8 -59.093,-20.373 l 0,-100.693 52.587,0 c 37.333,0 52.373,14.4 62.187,23.893 2.347,2.24 4.373,4.267 6.4,5.76 1.813,1.493 4.16,2.24 6.507,2.24 17.28,0.107 28.693,0.107 44.8,0.107 10.027,0 22.187,-0.107 38.507,-0.107 12.693,0 13.12,14.4 13.12,16 0.107,4.16 -1.173,8.32 -3.627,11.733 -2.24,2.88 -5.76,4.48 -9.493,4.267 l -114.669,0 c -5.333,0 -10.133,3.84 -10.88,9.067 -0.96,6.613 4.16,12.267 10.56,12.267 l 114.88,0 c 9.493,0.213 18.56,-3.733 24.853,-10.987 0.533,0 1.173,0 1.707,-0.107 l 106.667,-29.867 c 13.547,-3.84 18.347,-2.027 32.32,11.627 -32.107,16.214 -58.88,30.294 -80.96,41.92 z"
           inkscape:connector-curvature="0" />
      </g>
    </g>
    <circle
       style="opacity:1;fill:none;fill-opacity:1;fill-rule:evenodd;stroke:#000000;stroke-width:8;stroke-linecap:round;stroke-linejoin:miter;stroke-miterlimit:4;stroke-dasharray:none;stroke-dashoffset:0;stroke-opacity:1"
       id="path4138-9-3"
       cx="482.85715"
       cy="107.36221"
       r="69.285713" />
    <path
       id="path4453"
       d="m 483.66677,142.4219 c -0.0413,0 -0.0817,-1.8e-4 -0.1232,-5.5e-4 -5.6479,-0.0354 -11.02492,-2.48981 -14.7527,-6.73448 -2.84775,-3.24776 -4.5248,-7.23638 -4.85161,-11.53682 -0.32329,-4.25394 0.69976,-8.40708 2.95891,-12.01147 0.53858,-0.85909 1.5368,-1.31448 2.53855,-1.16108 1.00211,0.15434 1.81636,0.89021 2.0713,1.87139 0.52467,2.01925 1.35893,4.13203 2.47962,6.27929 0.64881,1.24333 0.16711,2.77753 -1.07659,3.42653 -1.24333,0.64918 -2.77754,0.16711 -3.42653,-1.07622 -0.13099,-0.25122 -0.259,-0.50227 -0.38333,-0.7533 -0.52653,4.10757 0.67513,8.38151 3.50749,11.61166 2.77014,3.15437 6.76766,4.97926 10.96657,5.00556 4.19983,0.0211 8.2183,-1.7467 11.02492,-4.86364 4.99408,-5.54526 4.92052,-14.09796 -0.17101,-19.89443 l -0.72995,-0.83242 c -0.0828,0.35868 -0.1697,0.71718 -0.26086,1.07548 -0.34533,1.35969 -1.72743,2.18172 -3.08656,1.83619 -1.3595,-0.34533 -2.18153,-1.72743 -1.83582,-3.08674 0.49374,-1.94384 0.85019,-3.88896 1.05955,-5.78147 0.11079,-1.00063 0.80184,-1.84157 1.7619,-2.14337 0.96024,-0.30198 2.0083,-0.009 2.67193,0.74812 l 4.23781,4.83364 c 6.7897,7.73011 6.84528,19.18485 0.12747,26.64373 -3.74889,4.16316 -9.10388,6.54404 -14.70786,6.5444 z"
       style="fill:#2d527c"
       inkscape:connector-curvature="0" />
    <path
       id="path4455"
       d="m 476.11396,108.65628 c -0.40352,0 -0.81295,-0.0965 -1.19405,-0.29994 -1.23723,-0.66086 -1.70466,-2.19932 -1.04399,-3.43635 1.03305,-1.93476 2.29232,-3.75353 3.7426,-5.40631 l 4.14166,-4.714323 c 0.48151,-0.548019 1.17589,-0.862419 1.90566,-0.863167 5.7e-4,0 10e-4,0 0.002,0 0.72922,0 1.42268,0.313103 1.90475,0.860199 l 0.5206,0.590268 c 0.0892,0.100809 0.16988,0.208984 0.24195,0.322732 0.68087,1.077516 1.31503,2.175601 1.88473,3.264418 0.65067,1.242963 0.17045,2.777353 -1.07214,3.427643 -1.2424,0.65084 -2.77734,0.17063 -3.42763,-1.07215 -0.11525,-0.21991 -0.23345,-0.44056 -0.35461,-0.66159 l -1.93068,2.19747 c -1.19294,1.35912 -2.22896,2.85572 -3.07878,4.44736 -0.45706,0.85612 -1.33522,1.34374 -2.2423,1.34374 z"
       style="fill:#2d527c"
       inkscape:connector-curvature="0" />
    <path
       inkscape:connector-curvature="0"
       style="fill:#cee8fa"
       d="m 491.65237,131.36568 c 0,4.43642 -3.59642,8.03284 -8.03284,8.03284 -4.43642,0 -8.03285,-3.59642 -8.03285,-8.03284 0,-4.43642 8.03285,-12.04982 8.03285,-12.04982 0,0 8.03284,7.61321 8.03284,12.04982 z"
       id="path4457" />
    <path
       id="path4461"
       d="m 483.61953,141.93836 c -5.82965,0 -10.5725,-4.74305 -10.5725,-10.57268 0,-5.26217 7.35162,-12.49613 8.82542,-13.89306 0.97951,-0.92855 2.51427,-0.92855 3.49397,0 1.47381,1.39674 8.82542,8.63089 8.82542,13.89306 1.9e-4,5.82963 -4.74286,10.57268 -10.57231,10.57268 z m 0,-19.01645 c -2.88407,3.08081 -5.49319,6.72856 -5.49319,8.44377 0,3.02931 2.46424,5.49338 5.49319,5.49338 3.02894,0 5.49319,-2.46426 5.49319,-5.49338 1.9e-4,-1.7154 -2.60876,-5.3624 -5.49319,-8.44377 z"
       style="fill:#2d527c"
       inkscape:connector-curvature="0" />
    <path
       id="path4463"
       d="m 503.17436,151.21935 -39.11004,0 c -6.11439,0 -11.08884,-4.97444 -11.08884,-11.08884 l 0,-31.91664 c 0,-13.023225 8.3315,-24.647491 20.48544,-28.918099 l 0,-13.012839 c 0,-1.402293 1.13699,-2.539657 2.53965,-2.539657 l 15.23772,0 c 1.40267,0 2.53966,1.137177 2.53966,2.539657 l 0,13.012465 c 12.15394,4.270609 20.48543,15.895061 20.48543,28.918093 l 0,10.4467 c 0,1.40229 -1.13699,2.53966 -2.53964,2.53966 -1.40267,0 -2.53966,-1.13718 -2.53966,-2.53966 l 0,-10.4467 c 0,-11.40916 -7.66212,-21.530719 -18.63275,-24.613581 -1.09568,-0.307726 -1.85268,-1.306871 -1.85268,-2.444971 l 0,-12.33236 -10.15842,0 0,12.33291 c 0,1.137737 -0.75701,2.137068 -1.85268,2.444982 -10.97064,3.082862 -18.63277,13.204222 -18.63277,24.61358 l 0,31.91665 c 0,3.3137 2.69584,6.00954 6.00954,6.00954 l 39.11023,0 c 3.31351,0 6.00953,-2.69584 6.00953,-6.00954 l 0,-8.04322 c 0,-1.40229 1.13699,-2.53966 2.53966,-2.53966 1.40265,0 2.53964,1.13718 2.53964,2.53966 l 0,8.04322 c -1.8e-4,6.11421 -4.97462,11.08865 -11.08902,11.08865 z"
       style="fill:#2d527c"
       inkscape:connector-curvature="0" />
    <path
       id="path4465"
       d="m 453.14352,92.808281 c -1.40266,0 -2.53965,-1.137177 -2.53965,-2.539646 l 0,-9.431065 c 0,-9.425502 7.66842,-17.094108 17.09411,-17.094108 l 33.86604,0 c 1.40266,0 2.53965,1.137177 2.53965,2.539646 0,1.40248 -1.13699,2.539657 -2.53965,2.539657 l -33.86586,0 c -6.62481,0 -12.01499,5.389811 -12.01499,12.014992 l 0,9.431054 c 0,1.402293 -1.13699,2.53947 -2.53965,2.53947 z"
       style="fill:#2d527c"
       inkscape:connector-curvature="0" />
    <path
       inkscape:connector-curvature="0"
       style="fill:#cee8fa"
       d="m 512.57096,59.950098 0,16.221498 c 0,0.739041 -0.74459,1.245748 -1.43212,0.974508 l -17.86908,-7.054252 0,-4.061811 17.86908,-7.054264 c 0.68772,-0.271228 1.43212,0.235291 1.43212,0.974321 z"
       id="path4467" />
    <path
       inkscape:connector-curvature="0"
       style="fill:#2d527c"
       d="m 511.52438,79.760054 c -0.45186,0 -0.89521,-0.08454 -1.31799,-0.251407 L 492.33731,72.45457 c -0.96988,-0.382943 -1.60702,-1.319667 -1.60702,-2.362345 l 0,-4.062184 c 0,-1.042502 0.63714,-1.979402 1.60702,-2.362356 l 17.86908,-7.054077 c 0.42259,-0.166923 0.86632,-0.251407 1.31818,-0.251407 1.97737,0 3.58586,1.609606 3.58586,3.587897 l 0,16.221498 c 1.9e-4,1.978852 -1.60849,3.588458 -3.58605,3.588458 z m -15.71496,-11.395823 14.2219,5.614351 0,-11.834909 -14.2219,5.614362 0,0.606196 z"
       id="path4469" />
    <rect
       x="475.70026"
       y="68.06002"
       style="fill:#cee8fa"
       width="15.8404"
       height="13.094732"
       id="rect4471" />
    <path
       inkscape:connector-curvature="0"
       style="fill:#2d527c"
       d="m 491.53992,83.695145 -15.84096,0 c -1.40267,0 -2.53965,-1.137177 -2.53965,-2.539657 l 0,-13.094542 c 0,-1.402293 1.13698,-2.539657 2.53965,-2.539657 l 15.84096,0 c 1.40265,0 2.53964,1.137177 2.53964,2.539657 l 0,13.094542 c 0,1.40248 -1.1368,2.539657 -2.53964,2.539657 z m -13.30113,-5.079303 10.76166,0 0,-8.01525 -10.76166,0 0,8.01525 0,0 z"
       id="path4473" />
  </g>
</svg>
