<?xml version="1.0" encoding="UTF-8" standalone="no"?>
<!-- Created with Inkscape (http://www.inkscape.org/) -->

<svg
   xmlns:dc="http://purl.org/dc/elements/1.1/"
   xmlns:cc="http://creativecommons.org/ns#"
   xmlns:rdf="http://www.w3.org/1999/02/22-rdf-syntax-ns#"
   xmlns:svg="http://www.w3.org/2000/svg"
   xmlns="http://www.w3.org/2000/svg"
   xmlns:sodipodi="http://sodipodi.sourceforge.net/DTD/sodipodi-0.dtd"
   xmlns:inkscape="http://www.inkscape.org/namespaces/inkscape"
   width="47.365715mm"
   height="47.365715mm"
   viewBox="0 0 167.83127 167.83127"
   id="svg3363"
   version="1.1"
   inkscape:version="0.91 r13725"
   sodipodi:docname="scen-disaster.svg">
  <defs
     id="defs3365" />
  <sodipodi:namedview
     id="base"
     pagecolor="#ffffff"
     bordercolor="#666666"
     borderopacity="1.0"
     inkscape:pageopacity="0.0"
     inkscape:pageshadow="2"
     inkscape:zoom="1.4"
     inkscape:cx="11.024451"
     inkscape:cy="127.03116"
     inkscape:document-units="px"
     inkscape:current-layer="layer1"
     showgrid="false"
     fit-margin-top="3"
     fit-margin-left="3"
     fit-margin-right="3"
     fit-margin-bottom="3"
     inkscape:window-width="1920"
     inkscape:window-height="1149"
     inkscape:window-x="0"
     inkscape:window-y="0"
     inkscape:window-maximized="1" />
  <metadata
     id="metadata3368">
    <rdf:RDF>
      <cc:Work
         rdf:about="">
        <dc:format>image/svg+xml</dc:format>
        <dc:type
           rdf:resource="http://purl.org/dc/dcmitype/StillImage" />
        <dc:title></dc:title>
      </cc:Work>
    </rdf:RDF>
  </metadata>
  <g
     inkscape:label="Layer 1"
     inkscape:groupmode="layer"
     id="layer1"
     transform="translate(-157.53882,-358.42067)">
    <circle
       style="opacity:1;fill:none;fill-opacity:1;fill-rule:evenodd;stroke:#000000;stroke-width:8;stroke-linecap:round;stroke-linejoin:miter;stroke-miterlimit:4;stroke-dasharray:none;stroke-dashoffset:0;stroke-opacity:1"
       id="path4138-9-3"
       cx="241.45445"
       cy="442.3363"
       r="69.285713" />
    <path
       id="path4453"
       d="m 242.26407,477.39602 c -0.0413,0 -0.0817,-1.8e-4 -0.1232,-5.5e-4 -5.6479,-0.0354 -11.02492,-2.48981 -14.7527,-6.73448 -2.84775,-3.24776 -4.5248,-7.23638 -4.85161,-11.53682 -0.32329,-4.25394 0.69976,-8.40708 2.95891,-12.01147 0.53858,-0.85909 1.5368,-1.31448 2.53855,-1.16108 1.00211,0.15434 1.81636,0.89021 2.0713,1.87139 0.52467,2.01925 1.35893,4.13203 2.47962,6.27929 0.64881,1.24333 0.16711,2.77753 -1.07659,3.42653 -1.24333,0.64918 -2.77754,0.16711 -3.42653,-1.07622 -0.13099,-0.25122 -0.259,-0.50227 -0.38333,-0.7533 -0.52653,4.10757 0.67513,8.38151 3.50749,11.61166 2.77014,3.15437 6.76766,4.97926 10.96657,5.00556 4.19983,0.0211 8.2183,-1.7467 11.02492,-4.86364 4.99408,-5.54526 4.92052,-14.09796 -0.17101,-19.89443 l -0.72995,-0.83242 c -0.0828,0.35868 -0.1697,0.71718 -0.26086,1.07548 -0.34533,1.35969 -1.72743,2.18172 -3.08656,1.83619 -1.3595,-0.34533 -2.18153,-1.72743 -1.83582,-3.08674 0.49374,-1.94384 0.85019,-3.88896 1.05955,-5.78147 0.11079,-1.00063 0.80184,-1.84157 1.7619,-2.14337 0.96024,-0.30198 2.0083,-0.009 2.67193,0.74812 l 4.23781,4.83364 c 6.7897,7.73011 6.84528,19.18485 0.12747,26.64373 -3.74889,4.16316 -9.10388,6.54404 -14.70786,6.5444 z"
       style="fill:#2d527c"
       inkscape:connector-curvature="0" />
    <path
       id="path4455"
       d="m 234.71126,443.6304 c -0.40352,0 -0.81295,-0.0965 -1.19405,-0.29994 -1.23723,-0.66086 -1.70466,-2.19932 -1.04399,-3.43635 1.03305,-1.93476 2.29232,-3.75353 3.7426,-5.40631 l 4.14166,-4.71432 c 0.48151,-0.54802 1.17589,-0.86242 1.90566,-0.86317 5.7e-4,0 0.001,0 0.002,0 0.72922,0 1.42268,0.3131 1.90475,0.8602 l 0.5206,0.59027 c 0.0892,0.10081 0.16988,0.20898 0.24195,0.32273 0.68087,1.07752 1.31503,2.1756 1.88473,3.26442 0.65067,1.24296 0.17045,2.77735 -1.07214,3.42764 -1.2424,0.65084 -2.77734,0.17063 -3.42763,-1.07215 -0.11525,-0.21991 -0.23345,-0.44056 -0.35461,-0.66159 l -1.93068,2.19747 c -1.19294,1.35912 -2.22896,2.85572 -3.07878,4.44736 -0.45706,0.85612 -1.33522,1.34374 -2.2423,1.34374 z"
       style="fill:#2d527c"
       inkscape:connector-curvature="0" />
    <path
       inkscape:connector-curvature="0"
       style="fill:#cee8fa"
       d="m 250.24967,466.3398 c 0,4.43642 -3.59642,8.03284 -8.03284,8.03284 -4.43642,0 -8.03285,-3.59642 -8.03285,-8.03284 0,-4.43642 8.03285,-12.04982 8.03285,-12.04982 0,0 8.03284,7.61321 8.03284,12.04982 z"
       id="path4457" />
    <path
       id="path4461"
       d="m 242.21683,476.91248 c -5.82965,0 -10.5725,-4.74305 -10.5725,-10.57268 0,-5.26217 7.35162,-12.49613 8.82542,-13.89306 0.97951,-0.92855 2.51427,-0.92855 3.49397,0 1.47381,1.39674 8.82542,8.63089 8.82542,13.89306 1.9e-4,5.82963 -4.74286,10.57268 -10.57231,10.57268 z m 0,-19.01645 c -2.88407,3.08081 -5.49319,6.72856 -5.49319,8.44377 0,3.02931 2.46424,5.49338 5.49319,5.49338 3.02894,0 5.49319,-2.46426 5.49319,-5.49338 1.9e-4,-1.7154 -2.60876,-5.3624 -5.49319,-8.44377 z"
       style="fill:#2d527c"
       inkscape:connector-curvature="0" />
    <path
       style="fill:#2d527c"
       d="m 77.058594,40.296875 c -1.40266,0 -2.539063,1.136773 -2.539063,2.539063 l 0,13.013671 c -12.15394,4.27061 -20.486328,15.894749 -20.486328,28.917969 l 0,31.916012 c 0,6.1144 4.975454,11.08985 11.089844,11.08985 l 39.109373,0 c 6.1144,0 11.08967,-4.97564 11.08985,-11.08985 0,-10.63867 0,-21.277341 0,-31.916012 0,-13.02303 -8.33239,-24.647359 -20.486332,-28.917969 l 0,-13.013671 c -10e-7,-1.40248 -1.136393,-2.539063 -2.539063,-2.539063 z m 2.541015,5.080078 10.158203,0 0,12.332031 c 10e-7,1.1381 0.755883,2.137583 1.851563,2.445313 10.970625,3.08286 18.632815,13.204121 18.632815,24.613281 0,10.638671 0,21.277342 0,31.916012 0,3.3137 -2.69626,6.00977 -6.00977,6.00977 l -39.109373,0 c -3.3137,0 -6.009766,-2.69607 -6.009766,-6.00977 l 0,-31.916012 c 0,-11.40936 7.662173,-21.530421 18.632813,-24.613281 1.09567,-0.30791 1.853515,-1.307573 1.853515,-2.445313 z"
       id="path4463"
       inkscape:connector-curvature="0"
       sodipodi:nodetypes="sscsssscccsssccscccsssscsc"
       transform="translate(157.53882,358.42067)" />
    <path
       id="path4465"
       d="m 211.74082,427.7824 c -1.40266,0 -2.53965,-1.13718 -2.53965,-2.53964 l 0,-9.43107 c 0,-9.4255 7.66842,-17.09411 17.09411,-17.09411 l 33.86604,0 c 1.40266,0 2.53965,1.13718 2.53965,2.53965 0,1.40248 -1.13699,2.53966 -2.53965,2.53966 l -33.86586,0 c -6.62481,0 -12.01499,5.38981 -12.01499,12.01499 l 0,9.43105 c 0,1.40229 -1.13699,2.53947 -2.53965,2.53947 z"
       style="fill:#2d527c"
       inkscape:connector-curvature="0" />
    <path
       inkscape:connector-curvature="0"
       style="fill:#cee8fa"
       d="m 271.16826,394.92422 0,16.2215 c 0,0.73904 -0.74459,1.24574 -1.43212,0.9745 l -17.86908,-7.05425 0,-4.06181 17.86908,-7.05426 c 0.68772,-0.27123 1.43212,0.23529 1.43212,0.97432 z"
       id="path4467" />
    <path
       inkscape:connector-curvature="0"
       style="fill:#2d527c"
       d="m 270.12168,414.73417 c -0.45186,0 -0.89521,-0.0845 -1.31799,-0.2514 l -17.86908,-7.05408 c -0.96988,-0.38294 -1.60702,-1.31967 -1.60702,-2.36234 l 0,-4.06219 c 0,-1.0425 0.63714,-1.9794 1.60702,-2.36235 l 17.86908,-7.05408 c 0.42259,-0.16692 0.86632,-0.25141 1.31818,-0.25141 1.97737,0 3.58586,1.60961 3.58586,3.5879 l 0,16.2215 c 1.9e-4,1.97885 -1.60849,3.58845 -3.58605,3.58845 z m -15.71496,-11.39582 14.2219,5.61435 0,-11.83491 -14.2219,5.61437 0,0.60619 z"
       id="path4469" />
    <rect
       x="234.29756"
       y="403.03415"
       style="fill:#cee8fa"
       width="15.8404"
       height="13.094732"
       id="rect4471" />
    <path
       inkscape:connector-curvature="0"
       style="fill:#2d527c"
       d="m 250.13722,418.66927 -15.84096,0 c -1.40267,0 -2.53965,-1.13718 -2.53965,-2.53966 l 0,-13.09454 c 0,-1.4023 1.13698,-2.53966 2.53965,-2.53966 l 15.84096,0 c 1.40265,0 2.53964,1.13718 2.53964,2.53966 l 0,13.09454 c 0,1.40248 -1.1368,2.53966 -2.53964,2.53966 z m -13.30113,-5.07931 10.76166,0 0,-8.01525 -10.76166,0 0,8.01525 0,0 z"
       id="path4473" />
  </g>
</svg>
