<?xml version="1.0" encoding="UTF-8" standalone="no"?>
<!-- Created with Inkscape (http://www.inkscape.org/) -->

<svg
   xmlns:dc="http://purl.org/dc/elements/1.1/"
   xmlns:cc="http://creativecommons.org/ns#"
   xmlns:rdf="http://www.w3.org/1999/02/22-rdf-syntax-ns#"
   xmlns:svg="http://www.w3.org/2000/svg"
   xmlns="http://www.w3.org/2000/svg"
   xmlns:sodipodi="http://sodipodi.sourceforge.net/DTD/sodipodi-0.dtd"
   xmlns:inkscape="http://www.inkscape.org/namespaces/inkscape"
   width="36.657143mm"
   height="47.34127mm"
   viewBox="0 0 129.88751 167.74466"
   id="svg2"
   version="1.1"
   inkscape:version="0.91 r13725"
   sodipodi:docname="atmosphere-icon.svg">
  <defs
     id="defs4" />
  <sodipodi:namedview
     id="base"
     pagecolor="#ffffff"
     bordercolor="#666666"
     borderopacity="1.0"
     inkscape:pageopacity="0.0"
     inkscape:pageshadow="2"
     inkscape:zoom="1.4"
     inkscape:cx="230.32292"
     inkscape:cy="94.372382"
     inkscape:document-units="px"
     inkscape:current-layer="layer1"
     showgrid="false"
     fit-margin-top="2"
     fit-margin-left="2"
     fit-margin-right="2"
     fit-margin-bottom="2"
     inkscape:window-width="1920"
     inkscape:window-height="1152"
     inkscape:window-x="1600"
     inkscape:window-y="0"
     inkscape:window-maximized="1" />
  <metadata
     id="metadata7">
    <rdf:RDF>
      <cc:Work
         rdf:about="">
        <dc:format>image/svg+xml</dc:format>
        <dc:type
           rdf:resource="http://purl.org/dc/dcmitype/StillImage" />
        <dc:title></dc:title>
      </cc:Work>
    </rdf:RDF>
  </metadata>
  <g
     inkscape:label="Layer 1"
     inkscape:groupmode="layer"
     id="layer1"
     transform="translate(-20.042479,-16.562813)">
    <rect
       style="color:#000000;clip-rule:nonzero;display:inline;overflow:visible;visibility:visible;opacity:1;isolation:auto;mix-blend-mode:normal;color-interpolation:sRGB;color-interpolation-filters:linearRGB;solid-color:#000000;solid-opacity:1;fill:#05558a;fill-opacity:1;fill-rule:nonzero;stroke:none;stroke-width:4;stroke-linecap:round;stroke-linejoin:round;stroke-miterlimit:4;stroke-dasharray:none;stroke-dashoffset:0;stroke-opacity:1;color-rendering:auto;image-rendering:auto;shape-rendering:auto;text-rendering:auto;enable-background:accumulate"
       id="rect3347"
       width="115.71429"
       height="153.57143"
       x="27.129093"
       y="23.649427" />
    <g
       id="g3379"
       transform="matrix(0.97491974,0,0,0.97491974,-28.83634,-680.58333)">
      <text
         sodipodi:linespacing="125%"
         id="text3363"
         y="763.80859"
         x="65.857147"
         style="font-style:normal;font-variant:normal;font-weight:normal;font-stretch:normal;font-size:70px;line-height:125%;font-family:Anatolian;-inkscape-font-specification:Anatolian;text-align:start;letter-spacing:0px;word-spacing:0px;writing-mode:lr-tb;text-anchor:start;fill:#ffffff;fill-opacity:1;stroke:none;stroke-width:1px;stroke-linecap:butt;stroke-linejoin:miter;stroke-opacity:1"
         xml:space="preserve"><tspan
           style="font-style:normal;font-variant:normal;font-weight:normal;font-stretch:condensed;font-size:41.0290184px;font-family:'Universalis ADF Cd Std';-inkscape-font-specification:'Universalis ADF Cd Std Condensed';fill:#ffffff"
           y="763.80859"
           x="65.857147"
           id="tspan3365"
           sodipodi:role="line">1</tspan></text>
      <text
         xml:space="preserve"
         style="font-style:normal;font-variant:normal;font-weight:normal;font-stretch:normal;font-size:70px;line-height:125%;font-family:Anatolian;-inkscape-font-specification:Anatolian;text-align:start;letter-spacing:0px;word-spacing:0px;writing-mode:lr-tb;text-anchor:start;fill:#ffffff;fill-opacity:1;stroke:none;stroke-width:1px;stroke-linecap:butt;stroke-linejoin:miter;stroke-opacity:1"
         x="82.05146"
         y="748.21326"
         id="text3367"
         sodipodi:linespacing="125%"><tspan
           sodipodi:role="line"
           id="tspan3369"
           x="82.05146"
           y="748.21326"
           style="font-style:normal;font-variant:normal;font-weight:bold;font-stretch:condensed;font-size:17.5px;font-family:'Universalis ADF Cd Std';-inkscape-font-specification:'Universalis ADF Cd Std Bold Condensed';fill:#ffffff">Atmosphere</tspan></text>
    </g>
    <path
       style="fill:#ffffff"
       d="m 98.217709,146.85129 c -4.19225,-1.1479 -7.10549,-3.82637 -8.6379,-7.94185 l -0.60933,-1.63641 0,-2.21681 0,-2.21681 0.60933,-1.63642 c 0.78299,-2.10283 2.17708,-4.16389 3.62207,-5.35497 l 1.14236,-0.94163 0.11818,-13.63971 0.11819,-13.639711 0.58367,-1.05803 c 0.7743,-1.40358 2.67823,-3.04466 3.80811,-3.28236 0.49986,-0.10516 1.162131,-0.24074 1.471721,-0.3013 0.30959,-0.0606 1.23819,0.0339 2.06357,0.20996 l 1.50068,0.32006 1.32515,1.28601 1.32515,1.28602 0.35235,1.26888 0.35235,1.26887 0.004,12.975471 0.004,12.97547 1.14799,0.78174 c 1.41306,0.96225 2.75351,2.68272 3.79761,4.87423 l 0.79254,1.66354 0.0398,3.16069 0.0398,3.16069 -0.80471,1.66352 c -1.75889,3.636 -4.56823,6.00821 -8.24304,6.96044 -2.40189,0.62239 -3.68064,0.62466 -5.923941,0.0103 z m 6.362251,-5.33339 c 1.60209,-0.99728 2.48647,-1.90706 3.20874,-3.30099 l 0.68958,-1.33082 0.006,-1.99622 0.006,-1.99623 -0.62277,-0.99811 c -1.02015,-1.63499 -1.93307,-2.52657 -3.07838,-3.00643 l -1.08129,-0.45303 0,-14.24923 0,-14.249231 -0.56295,-0.82261 c -0.30962,-0.45244 -0.72135,-0.93262 -0.91494,-1.06705 -0.63673,-0.44217 -2.00089,-0.25106 -2.847271,0.39889 l -0.83176,0.63872 -0.16635,14.737241 -0.16635,14.73724 -0.88296,0.42292 c -1.28349,0.61478 -2.85364,2.53645 -3.25584,3.98474 -0.44302,1.59532 -0.44031,2.5914 0.0115,4.21866 l 0.3605,1.29838 1.38434,1.45984 1.38434,1.45987 1.33082,0.49127 1.33082,0.49131 1.870751,-0.13661 1.87075,-0.13664 0.95723,-0.59588 z m -1.88861,-1.65899 -0.43205,-0.52059 0.89036,-1.75844 0.89037,-1.75841 0,-1.22152 0,-1.22152 0.78968,-0.35982 0.78967,-0.35979 0.7075,0.37865 0.70749,0.37862 0,1.57359 0,1.57356 -0.68971,1.32589 c -1.1945,2.29629 -2.70596,3.11125 -3.65331,1.96978 z m -3.641881,-32.0462 0,-6.98173 0.31677,-0.833191 c 0.389,-1.02315 1.334181,-1.56705 2.289201,-1.31731 l 0.71732,0.18758 0.35166,1.209331 0.35167,1.20933 -0.10026,6.65409 -0.10026,6.65408 -1.91305,0.0998 -1.913051,0.0998 0,-6.98174 z m -19.15331,28.15845 c -1.10707,-1.31013 -2.47247,-4.29237 -2.47247,-5.40029 0,-0.44364 0.16111,-1.16022 0.35802,-1.5924 l 0.35802,-0.78577 3.48874,0.0353 3.48874,0.0353 0.30695,0.48526 c 0.3976,0.62857 0.40449,2.82462 0.0112,3.56728 -0.16827,0.31777 -0.63188,1.25147 -1.03024,2.07491 -0.99404,2.05472 -1.60473,2.66164 -2.67826,2.66164 l -0.91698,0 -0.91371,-1.08129 z m -15.115754,-5.40708 -0.47375,-0.57083 0.0716,-1.64542 c 0.0394,-0.90499 0.29581,-2.079 0.56984,-2.60892 0.27403,-0.52992 0.498243,-1.17999 0.498243,-1.44461 0,-0.54551 2.15006,-2.54627 2.73629,-2.54627 0.21131,0 1.06697,0.71121 1.90147,1.58046 0.8345,0.86925 1.966421,1.90205 2.515381,2.29512 l 0.99811,0.71467 -0.6654,1.27278 -0.66541,1.27279 -1.903831,0.97155 -1.90383,0.97156 -1.60248,0.15398 -1.602483,0.15397 -0.47374,-0.57083 z m 13.304424,-4.42947 c -1.19177,-0.33346 -2.83865,-1.00053 -3.65975,-1.48237 -3.018531,-1.77135 -6.014741,-5.78672 -6.699101,-8.97775 l -0.36791,-1.71553 0.16552,-2.90309 0.16553,-2.90309 1.23617,-2.26856 c 0.67989,-1.24771 1.85958,-2.91369 2.62153,-3.70217 l 1.385361,-1.43361 2.34034,-1.159981 2.34033,-1.15998 1.98482,-0.27686 1.98482,-0.27686 1.82988,0.26407 c 3.24324,0.46804 6.0728,1.80588 8.06808,3.814671 l 0.91493,0.92113 0,9.56297 0,9.56298 -1.41399,1.15544 c -2.55662,2.08912 -5.3018,3.18704 -8.56714,3.42638 l -2.16257,0.15851 -2.16685,-0.6063 z M 60.106855,115.34348 c -1.16362,-0.59471 -2.41059,-1.48869 -2.77104,-1.98662 l -0.65537,-0.90532 0.37781,-0.82919 c 0.44133,-0.96863 2.56317,-2.38655 4.62019,-3.08744 l 1.4451,-0.4924 1.24457,0.29425 1.244573,0.29425 0.0433,3.69691 0.0433,3.69691 -0.999843,0.19997 c -1.75934,0.35187 -2.43247,0.22269 -4.59261,-0.88132 z m 6.597033,-13.5206 -1.09454,-0.96102 -0.603133,-1.783801 c -0.33173,-0.98108 -0.611,-2.44636 -0.6206,-3.25616 l -0.0175,-1.47236 0.62226,-0.46603 0.622263,-0.46602 1.24674,0.15991 c 0.68571,0.0879 2.18313,0.5981 3.32759,1.13366 l 2.080851,0.97375 0.66486,1.25413 0.66486,1.25413 -1.14709,0.88142 c -0.6309,0.48478 -1.750061,1.517711 -2.487021,2.295411 -0.73696,0.77769 -1.52558,1.41399 -1.75249,1.41399 -0.22691,0 -0.90511,-0.43246 -1.5071,-0.96101 z m 24.272971,-2.585051 -1.25218,-0.89182 0.21904,-0.69222 c 0.33452,-1.05719 1.20056,-2.10364 2.07878,-2.51181 0.43536,-0.20235 0.85241,-0.30708 0.92676,-0.23272 0.0744,0.0743 -0.0573,1.27935 -0.29252,2.67778 l -0.42771,2.542601 -1.25217,-0.891811 z m -13.18601,-3.66433 c -0.44712,-0.98131 -0.47275,-2.24768 -0.0612,-3.02478 0.16827,-0.31775 0.63128,-1.25145 1.02892,-2.07489 0.94856,-1.9643 1.93227,-2.99434 2.85966,-2.99434 l 0.75149,0 1.12966,1.41399 c 1.85947,2.3275 2.71551,5.39708 1.91978,6.8839 l -0.32215,0.60195 -3.46949,0 -3.46949,0 -0.36716,-0.80583 z"
       id="path3621"
       inkscape:connector-curvature="0" />
  </g>
</svg>
