<?xml version="1.0" encoding="UTF-8" standalone="no"?>
<!-- Created with Inkscape (http://www.inkscape.org/) -->

<svg
   xmlns:dc="http://purl.org/dc/elements/1.1/"
   xmlns:cc="http://creativecommons.org/ns#"
   xmlns:rdf="http://www.w3.org/1999/02/22-rdf-syntax-ns#"
   xmlns:svg="http://www.w3.org/2000/svg"
   xmlns="http://www.w3.org/2000/svg"
   xmlns:sodipodi="http://sodipodi.sourceforge.net/DTD/sodipodi-0.dtd"
   xmlns:inkscape="http://www.inkscape.org/namespaces/inkscape"
   width="36.657143mm"
   height="47.34127mm"
   viewBox="0 0 129.88751 167.74466"
   id="svg2"
   version="1.1"
   inkscape:version="0.91 r13725"
   sodipodi:docname="ground-icon.svg">
  <defs
     id="defs4" />
  <sodipodi:namedview
     id="base"
     pagecolor="#ffffff"
     bordercolor="#666666"
     borderopacity="1.0"
     inkscape:pageopacity="0.0"
     inkscape:pageshadow="2"
     inkscape:zoom="1.4"
     inkscape:cx="-13.505662"
     inkscape:cy="94.372378"
     inkscape:document-units="px"
     inkscape:current-layer="layer1"
     showgrid="false"
     fit-margin-top="2"
     fit-margin-left="2"
     fit-margin-right="2"
     fit-margin-bottom="2"
     inkscape:window-width="1920"
     inkscape:window-height="1152"
     inkscape:window-x="1600"
     inkscape:window-y="0"
     inkscape:window-maximized="1" />
  <metadata
     id="metadata7">
    <rdf:RDF>
      <cc:Work
         rdf:about="">
        <dc:format>image/svg+xml</dc:format>
        <dc:type
           rdf:resource="http://purl.org/dc/dcmitype/StillImage" />
        <dc:title></dc:title>
      </cc:Work>
    </rdf:RDF>
  </metadata>
  <g
     inkscape:label="Layer 1"
     inkscape:groupmode="layer"
     id="layer1"
     transform="translate(-263.87106,-16.562813)">
    <rect
       style="color:#000000;clip-rule:nonzero;display:inline;overflow:visible;visibility:visible;opacity:1;isolation:auto;mix-blend-mode:normal;color-interpolation:sRGB;color-interpolation-filters:linearRGB;solid-color:#000000;solid-opacity:1;fill:#8f1838;fill-opacity:1;fill-rule:nonzero;stroke:none;stroke-width:4;stroke-linecap:round;stroke-linejoin:round;stroke-miterlimit:4;stroke-dasharray:none;stroke-dashoffset:0;stroke-opacity:1;color-rendering:auto;image-rendering:auto;shape-rendering:auto;text-rendering:auto;enable-background:accumulate"
       id="rect3351"
       width="115.71429"
       height="153.57143"
       x="270.95767"
       y="23.649427" />
    <g
       transform="matrix(0.97491974,0,0,0.97491974,221.30118,-680.58333)"
       id="g3395">
      <text
         sodipodi:linespacing="125%"
         id="text3397"
         y="763.80859"
         x="79.097145"
         style="font-style:normal;font-variant:normal;font-weight:normal;font-stretch:normal;font-size:70px;line-height:125%;font-family:Anatolian;-inkscape-font-specification:Anatolian;text-align:start;letter-spacing:0px;word-spacing:0px;writing-mode:lr-tb;text-anchor:start;fill:#ffffff;fill-opacity:1;stroke:none;stroke-width:1px;stroke-linecap:butt;stroke-linejoin:miter;stroke-opacity:1"
         xml:space="preserve"><tspan
           style="font-style:normal;font-variant:normal;font-weight:normal;font-stretch:condensed;font-size:41.0290184px;font-family:'Universalis ADF Cd Std';-inkscape-font-specification:'Universalis ADF Cd Std Condensed';text-align:end;text-anchor:end;fill:#ffffff"
           y="763.80859"
           x="79.097145"
           id="tspan3399"
           sodipodi:role="line">3</tspan></text>
      <text
         xml:space="preserve"
         style="font-style:normal;font-variant:normal;font-weight:normal;font-stretch:normal;font-size:70px;line-height:100%;font-family:Anatolian;-inkscape-font-specification:Anatolian;text-align:start;letter-spacing:0px;word-spacing:0px;writing-mode:lr-tb;text-anchor:start;fill:#ffffff;fill-opacity:1;stroke:none;stroke-width:1px;stroke-linecap:butt;stroke-linejoin:miter;stroke-opacity:1"
         x="82.05146"
         y="747.76196"
         id="text3401"
         sodipodi:linespacing="100%"><tspan
           sodipodi:role="line"
           id="tspan3403"
           x="82.05146"
           y="747.76196"
           style="font-style:normal;font-variant:normal;font-weight:bold;font-stretch:condensed;font-size:17.5px;line-height:100%;font-family:'Universalis ADF Cd Std';-inkscape-font-specification:'Universalis ADF Cd Std Bold Condensed';fill:#ffffff">Ground</tspan><tspan
           sodipodi:role="line"
           x="82.05146"
           y="765.26196"
           style="font-style:normal;font-variant:normal;font-weight:bold;font-stretch:condensed;font-size:17.5px;line-height:100%;font-family:'Universalis ADF Cd Std';-inkscape-font-specification:'Universalis ADF Cd Std Bold Condensed';fill:#ffffff"
           id="tspan3405">Surface</tspan></text>
    </g>
    <g
       id="g3651"
       style="fill:#ffffff"
       transform="translate(-25.427128,-765.45413)">
      <path
         inkscape:connector-curvature="0"
         id="path3517"
         d="m 351.28358,890.79002 c -1.84894,-0.15254 -3.89564,-0.41013 -4.54821,-0.5724 -5.5357,-1.37676 -11.71896,-4.27326 -15.83713,-7.41877 -2.49339,-1.90448 -7.27217,-6.68661 -7.98938,-7.99499 -0.34889,-0.63646 -0.22133,-1.03741 0.70025,-2.20099 4.88814,-6.17179 12.61841,-11.39957 20.16004,-13.63372 11.83927,-3.5073 24.58281,-1.52393 34.96212,5.44139 2.94514,1.97642 6.1006,4.84257 8.43984,7.66605 l 1.67707,2.02422 -0.85056,1.13614 c -1.50525,2.01064 -5.61034,6.0916 -7.63487,7.59 -1.8736,1.38669 -6.06332,4.02677 -6.39033,4.02677 -0.0848,0 -0.90859,0.34108 -1.8307,0.75793 -6.17563,2.79189 -12.97812,3.82845 -20.85814,3.17837 z m 9.78855,-3.92803 c 1.14199,-0.49315 2.07635,-1.04221 2.07635,-1.22011 0,-0.71028 -0.73444,-0.69623 -2.10872,0.0403 -1.33896,0.71763 -1.56771,0.73135 -3.12852,0.18766 -0.92617,-0.32265 -2.31175,-0.58921 -3.07906,-0.59237 -2.56628,-0.0106 -4.04926,2.01948 -1.8343,2.51101 1.90234,0.42215 6.05454,-0.0543 8.07425,-0.92653 z m -11.27954,-2.48011 c 1.01275,-0.78516 2.28199,-3.37655 2.28199,-4.65911 0,-0.64596 0.17797,-1.17446 0.39549,-1.17446 0.21753,0 0.3955,0.26696 0.3955,0.59324 0,0.32629 0.17797,0.59325 0.3955,0.59325 0.5236,0 0.50889,-1.06973 -0.0192,-1.39611 -0.28225,-0.17444 -0.26297,-0.43912 0.0604,-0.82872 0.38508,-0.464 0.2389,-0.80332 -0.77179,-1.79145 -1.82849,-1.78769 -1.6777,-2.62358 0.20599,-1.14188 0.8093,0.6366 1.1193,0.69002 1.74324,0.30036 0.96394,-0.60199 0.9588,-0.64331 -0.2553,-2.05508 -1.44614,-1.68159 -0.40083,-1.79365 1.14416,-0.12265 1.24847,1.35028 3.47129,2.68506 4.47147,2.68506 0.28872,0 0.63661,-0.44493 0.7731,-0.98874 0.36401,-1.45032 1.12976,-1.20829 1.95298,0.61728 0.62448,1.38487 1.57926,2.34895 2.32626,2.34895 0.11762,0 0.10866,-0.52598 -0.0199,-1.16884 -0.24474,-1.22369 0.24489,-2.00912 1.56397,-2.50884 0.39446,-0.14944 0.61635,-0.43487 0.49309,-0.6343 -0.12325,-0.19943 -0.11375,-0.65016 0.0211,-1.00163 0.17671,-0.4605 0.3834,-0.52435 0.7398,-0.22856 0.3501,0.29055 0.62921,0.24826 0.95539,-0.14477 1.05495,-1.27113 -1.67586,-5.9925 -4.88076,-8.43847 -1.81002,-1.38139 -5.99312,-2.88095 -8.03657,-2.88095 -1.60033,0 -5.51735,1.07752 -5.84516,1.60793 -0.12562,0.20325 0.18254,0.37228 0.68481,0.37561 1.2193,0.008 1.83858,0.44373 2.53273,1.78172 0.62157,1.19806 0.46351,1.53144 -0.92492,1.95086 -0.70104,0.21177 -0.83749,0.13805 -0.6498,-0.35105 0.27998,-0.72961 0.12237,-0.74284 -2.63026,-0.22082 -2.47437,0.46926 -2.62993,0.57755 -1.97069,1.37189 0.56313,0.67852 2.20582,0.81058 2.57866,0.20731 0.13444,-0.21753 0.45004,-0.3955 0.70134,-0.3955 0.25601,0 0.15266,0.30432 -0.23503,0.69212 -0.41332,0.41343 -1.32104,0.70201 -2.25428,0.71669 -1.03774,0.0163 -1.87161,0.31512 -2.4834,0.88987 -0.50659,0.47591 -1.22105,0.86529 -1.58769,0.86529 -0.60538,0 -0.85102,0.45463 -0.70624,1.30706 0.0297,0.17507 -0.21614,0.7041 -0.54641,1.17562 -0.72408,1.03377 -0.76611,2.81914 -0.12295,5.22383 0.45724,1.70956 0.53976,1.78541 1.94233,1.78541 1.71566,0 3.26667,1.51999 3.72335,3.64887 0.44487,2.07382 0.71707,2.27804 1.85772,1.39371 z m -4.34258,-12.41483 c -0.92448,-0.33198 -1.68086,-0.74449 -1.68086,-0.9167 0,-0.70303 2.4477,-0.77275 3.97034,-0.11309 2.89123,1.25257 0.86672,2.16317 -2.28948,1.02979 z m 20.63617,11.1015 c 1.24205,-1.24206 2.71789,-4.16431 2.3094,-4.5728 -0.48796,-0.48796 -4.72657,0.65204 -5.74147,1.54421 -0.70095,0.61619 -0.89022,1.88238 -0.45205,3.02421 0.32011,0.83421 3.05121,0.83728 3.88412,0.004 z m 3.31667,-8.78192 c -0.0683,-0.59264 -0.30214,-1.03857 -0.51967,-0.99095 -0.48702,0.10662 -0.74352,1.91855 -0.39839,2.81418 0.23276,0.60402 0.28657,0.60041 0.64804,-0.0435 0.2168,-0.38622 0.33832,-1.1871 0.27002,-1.77974 z m -24.58369,-6.63154 c 0.34483,-0.89859 -0.13005,-1.15715 -0.83343,-0.45377 -0.7726,0.7726 -0.77436,1.06408 -0.006,1.06408 0.33312,0 0.71105,-0.27464 0.83986,-0.61031 z m 1.3309,-2.36548 c 0.27516,-0.33154 0.39023,-0.71285 0.25573,-0.84735 -0.28724,-0.28725 -1.45015,0.59734 -1.45015,1.10309 0,0.54477 0.6446,0.40676 1.19442,-0.25574 z"
         style="fill:#ffffff" />
      <path
         sodipodi:nodetypes="cscccccccccccccc"
         style="fill:#ffffff"
         d="m 325.7069,912.48157 c -0.99674,-0.1444 -1.06467,-0.2761 -1.06467,-2.0644 l 0,-1.91 30.39148,0 30.39148,0 0,1.8863 0,1.8863 -1.55991,0.2494 c -1.64284,0.2627 -56.32569,0.2179 -58.15838,-0.048 z m -0.58073,-7.32805 c -0.74761,-0.30166 -0.63758,-3.86045 0.12846,-4.15441 0.80023,-0.30707 58.75792,-0.30707 59.55817,0 0.86528,0.33206 0.86528,3.8438 0,4.17582 -0.73211,0.28096 -58.98913,0.26005 -59.68663,-0.0213 z"
         id="path3638"
         inkscape:connector-curvature="0" />
    </g>
  </g>
</svg>
