<?xml version="1.0" encoding="UTF-8" standalone="no"?>
<!-- Created with Inkscape (http://www.inkscape.org/) -->

<svg
   xmlns:dc="http://purl.org/dc/elements/1.1/"
   xmlns:cc="http://creativecommons.org/ns#"
   xmlns:rdf="http://www.w3.org/1999/02/22-rdf-syntax-ns#"
   xmlns:svg="http://www.w3.org/2000/svg"
   xmlns="http://www.w3.org/2000/svg"
   xmlns:sodipodi="http://sodipodi.sourceforge.net/DTD/sodipodi-0.dtd"
   xmlns:inkscape="http://www.inkscape.org/namespaces/inkscape"
   width="36.657143mm"
   height="47.34127mm"
   viewBox="0 0 129.88751 167.74466"
   id="svg2"
   version="1.1"
   inkscape:version="0.91 r13725"
   sodipodi:docname="socio-icon.svg">
  <defs
     id="defs4" />
  <sodipodi:namedview
     id="base"
     pagecolor="#ffffff"
     bordercolor="#666666"
     borderopacity="1.0"
     inkscape:pageopacity="0.0"
     inkscape:pageshadow="2"
     inkscape:zoom="1.4"
     inkscape:cx="-236.39141"
     inkscape:cy="94.372374"
     inkscape:document-units="px"
     inkscape:current-layer="layer1"
     showgrid="false"
     fit-margin-top="2"
     fit-margin-left="2"
     fit-margin-right="2"
     fit-margin-bottom="2"
     inkscape:window-width="1920"
     inkscape:window-height="1152"
     inkscape:window-x="1600"
     inkscape:window-y="0"
     inkscape:window-maximized="1" />
  <metadata
     id="metadata7">
    <rdf:RDF>
      <cc:Work
         rdf:about="">
        <dc:format>image/svg+xml</dc:format>
        <dc:type
           rdf:resource="http://purl.org/dc/dcmitype/StillImage" />
        <dc:title></dc:title>
      </cc:Work>
    </rdf:RDF>
  </metadata>
  <g
     inkscape:label="Layer 1"
     inkscape:groupmode="layer"
     id="layer1"
     transform="translate(-385.78536,-16.562813)">
    <rect
       y="23.649427"
       x="392.87198"
       height="153.57143"
       width="115.71429"
       id="rect3353"
       style="color:#000000;clip-rule:nonzero;display:inline;overflow:visible;visibility:visible;opacity:1;isolation:auto;mix-blend-mode:normal;color-interpolation:sRGB;color-interpolation-filters:linearRGB;solid-color:#000000;solid-opacity:1;fill:#d18d2c;fill-opacity:1;fill-rule:nonzero;stroke:none;stroke-width:4;stroke-linecap:round;stroke-linejoin:round;stroke-miterlimit:4;stroke-dasharray:none;stroke-dashoffset:0;stroke-opacity:1;color-rendering:auto;image-rendering:auto;shape-rendering:auto;text-rendering:auto;enable-background:accumulate" />
    <g
       id="g3407"
       transform="matrix(0.97491974,0,0,0.97491974,343.08174,-683.44047)">
      <text
         xml:space="preserve"
         style="font-style:normal;font-variant:normal;font-weight:normal;font-stretch:normal;font-size:70px;line-height:125%;font-family:Anatolian;-inkscape-font-specification:Anatolian;text-align:start;letter-spacing:0px;word-spacing:0px;writing-mode:lr-tb;text-anchor:start;fill:#ffffff;fill-opacity:1;stroke:none;stroke-width:1px;stroke-linecap:butt;stroke-linejoin:miter;stroke-opacity:1"
         x="79.097145"
         y="765.70374"
         id="text3409"
         sodipodi:linespacing="125%"><tspan
           sodipodi:role="line"
           id="tspan3411"
           x="79.097145"
           y="765.70374"
           style="font-style:normal;font-variant:normal;font-weight:normal;font-stretch:condensed;font-size:41.0290184px;font-family:'Universalis ADF Cd Std';-inkscape-font-specification:'Universalis ADF Cd Std Condensed';text-align:end;text-anchor:end;fill:#ffffff">4</tspan></text>
      <text
         sodipodi:linespacing="100%"
         id="text3413"
         y="748.93359"
         x="82.05146"
         style="font-style:normal;font-variant:normal;font-weight:normal;font-stretch:normal;font-size:70px;line-height:100%;font-family:Anatolian;-inkscape-font-specification:Anatolian;text-align:start;letter-spacing:0px;word-spacing:0px;writing-mode:lr-tb;text-anchor:start;fill:#ffffff;fill-opacity:1;stroke:none;stroke-width:1px;stroke-linecap:butt;stroke-linejoin:miter;stroke-opacity:1"
         xml:space="preserve"><tspan
           id="tspan3417"
           style="font-style:normal;font-variant:normal;font-weight:bold;font-stretch:condensed;font-size:17.5px;line-height:100%;font-family:'Universalis ADF Cd Std';-inkscape-font-specification:'Universalis ADF Cd Std Bold Condensed';fill:#ffffff"
           y="748.93359"
           x="82.05146"
           sodipodi:role="line">Socio-</tspan><tspan
           style="font-style:normal;font-variant:normal;font-weight:bold;font-stretch:condensed;font-size:17.5px;line-height:100%;font-family:'Universalis ADF Cd Std';-inkscape-font-specification:'Universalis ADF Cd Std Bold Condensed';fill:#ffffff"
           y="766.43359"
           x="82.05146"
           sodipodi:role="line"
           id="tspan3421">Economic</tspan></text>
    </g>
    <path
       style="fill:#ffffff"
       d="m 431.44423,117.07337 0,-6.72279 1.38247,-1.20324 c 0.76036,-0.66178 3.09582,-2.70727 5.1899,-4.54552 2.09408,-1.83827 4.02236,-3.34231 4.28506,-3.34231 0.3462,0 0.47766,3.10121 0.47766,11.26833 l 0,11.26834 -5.66755,0 -5.66754,0 0,-6.72281 z m 14.27382,-3.8591 0,-10.58189 1.77711,1.50994 c 0.97742,0.83046 1.84402,1.64082 1.92577,1.80079 0.0818,0.15997 0.49467,0.45935 0.91759,0.66529 0.63054,0.30704 1.20079,-0.003 3.16841,-1.72328 1.31971,-1.15373 2.56303,-2.0977 2.76294,-2.0977 0.19989,0 0.36344,4.72697 0.36344,10.50438 l 0,10.50438 -5.45762,0 -5.45764,0 0,-10.58191 z m 13.85398,-1.73636 0,-12.318251 5.14278,-4.44659 c 2.82852,-2.44562 5.28446,-4.36947 5.45764,-4.27522 0.17316,0.0943 0.31485,7.63844 0.31485,16.764851 l 0,16.59348 -5.45763,0 -5.45764,0 0,-12.31827 z m -30.15371,-4.99083 c -0.50204,-0.48624 -0.91281,-1.04678 -0.91281,-1.24564 0,-0.48771 13.95977,-13.149391 14.49749,-13.149391 0.23352,0 2.02205,1.46107 3.9745,3.24682 1.95245,1.78574 3.74488,3.2468 3.98315,3.2468 0.63979,0 16.16811,-14.24564 16.16811,-14.83258 0,-0.2756 -0.30223,-0.77607 -0.6716,-1.11215 -0.6156,-0.56011 -0.55433,-0.64985 0.73469,-1.07608 2.14533,-0.70941 6.20751,-1.4657 6.49033,-1.20837 0.37471,0.34094 -1.15587,7.15184 -1.6072,7.15184 -0.2135,0 -0.68001,-0.26551 -1.03666,-0.59002 -0.35666,-0.32451 -0.80984,-0.53937 -1.00707,-0.47748 -0.19722,0.0619 -4.50966,3.85116 -9.58318,8.42056 -5.07353,4.5694 -9.38121,8.308011 -9.57263,8.308011 -0.19142,0 -1.94549,-1.46106 -3.89794,-3.246811 -1.95245,-1.78575 -3.74554,-3.24681 -3.98463,-3.24681 -0.23909,0 -3.0745,2.40646 -6.30091,5.347681 -3.22642,2.94123 -5.97748,5.34769 -6.1135,5.34769 -0.13603,0 -0.65809,-0.39783 -1.16014,-0.88407 z"
       id="path3545"
       inkscape:connector-curvature="0" />
    <path
       style="fill:#ffffff"
       d="m 412.37016,163.27873 c -0.17949,-0.4678 0.23149,-3.00907 1.47391,-9.11388 0.50572,-2.48495 0.61142,-4.08975 0.57637,-8.75024 -0.0621,-8.25225 0.10371,-8.46224 6.68084,-8.46224 6.20959,0 6.70105,0.4695 6.70105,6.40134 0,3.60785 0.25428,4.84973 1.00065,4.88722 0.20352,0.0104 0.78624,0.59278 1.29494,1.29451 0.87483,1.20686 1.01741,1.28081 2.63313,1.36637 1.69418,0.0896 1.71747,0.0793 2.83321,-1.28257 0.61875,-0.75509 1.3661,-1.44945 1.66077,-1.54295 0.37417,-0.11873 0.83136,-1.15583 1.51587,-3.43864 1.88538,-6.28771 1.74714,-6.16231 6.79237,-6.16231 3.56311,0 3.65451,0.0171 4.47064,0.83763 0.77497,0.77915 1.76264,3.3834 2.92885,7.72286 0.41904,1.55921 0.15855,2.40491 -0.74078,2.40491 -0.81406,0 -1.04778,-0.42581 -2.17368,-3.95971 -0.70681,-2.21857 -1.05541,-2.96997 -1.13799,-2.45315 -0.0655,0.40988 0.0313,1.23226 0.21512,1.8276 0.1838,0.59526 0.82237,2.85084 1.41905,5.0122 1.18732,4.30093 1.16634,4.43304 -0.70526,4.44185 l -0.98993,0.008 0,4.04424 c 0,4.30718 -0.3078,5.39819 -1.52297,5.39819 -1.20247,0 -1.52296,-1.10015 -1.52296,-5.22795 0,-2.25405 -0.12737,-3.95267 -0.30459,-4.06218 -0.19749,-0.12202 -0.3046,1.301 -0.3046,4.0468 0,3.71609 -0.0683,4.29692 -0.55703,4.73916 -0.76341,0.69092 -1.45108,0.63196 -2.01474,-0.17281 -0.37109,-0.5298 -0.47417,-1.55208 -0.47417,-4.70279 l 0,-4.02589 -1.14222,-0.0945 c -1.45101,-0.12009 -1.55247,-0.65142 -0.69774,-3.65415 0.34875,-1.22521 0.78424,-2.77593 0.96776,-3.44602 0.18352,-0.67009 0.44627,-1.56105 0.58389,-1.9799 0.48708,-1.48222 0.64304,-2.74132 0.33957,-2.74132 -0.16596,0 -0.66519,1.19933 -1.1094,2.66521 -1.30881,4.31896 -1.32085,4.34043 -2.42616,4.34043 -0.89955,0 -1.06376,0.17049 -2.15735,2.23971 l -1.18369,2.23956 0.57705,2.31734 c 0.53458,2.1467 0.54042,2.35781 0.0795,2.86718 -0.3107,0.3433 -0.53269,1.22257 -0.59105,2.34098 -0.0697,1.33497 -0.23411,1.87687 -0.6456,2.12732 -0.92795,0.56489 -1.73135,-0.73923 -1.737,-2.81968 -0.003,-1.22136 -0.09,-1.58565 -0.29993,-1.26078 -0.1624,0.25125 -0.29736,1.23579 -0.29993,2.18772 -0.004,1.47469 -0.097,1.76022 -0.62846,1.92895 -1.03791,0.32935 -1.50836,-0.36501 -1.50836,-2.22626 0,-1.1217 -0.16387,-1.87126 -0.48725,-2.22857 -0.44707,-0.494 -0.44185,-0.73106 0.0634,-2.87391 l 0.55059,-2.33546 -1.17326,-2.27913 c -1.04025,-2.02084 -1.25656,-2.26327 -1.90809,-2.13869 -1.37752,0.26326 -1.61423,-0.39881 -1.61423,-4.51508 0,-3.23138 -0.0659,-3.75077 -0.45689,-3.60072 -0.39399,0.15118 -0.45689,1.63196 -0.45689,10.75626 0,10.24671 -0.0195,10.59866 -0.61841,11.14064 -0.48969,0.4432 -0.79083,0.49912 -1.44682,0.26887 l -0.8284,-0.29074 -0.17362,-6.542 c -0.0955,-3.59808 -0.19828,-6.59305 -0.22845,-6.65546 -0.0301,-0.0625 -0.26043,0.0569 -0.51172,0.26575 -0.37872,0.31429 -0.45689,1.43928 -0.45689,6.57533 0,5.81424 -0.0363,6.21562 -0.58916,6.51149 -0.83699,0.44792 -1.15661,0.39705 -1.84758,-0.29387 -0.58561,-0.58564 -0.60919,-1.0153 -0.60919,-11.09971 0,-9.47993 -0.16492,-11.8189 -0.72957,-10.3475 -0.10131,0.26406 -0.18421,1.91709 -0.18421,3.67339 0,1.75637 -0.13209,3.44016 -0.29354,3.74188 -0.27441,0.51266 -0.78571,2.86518 -1.56025,7.17861 -1.22194,6.80494 -1.75659,8.42264 -2.30843,6.98464 z m 46.71653,0.0971 c -0.42679,-0.3187 -0.52307,-1.07516 -0.59126,-4.64503 l -0.0814,-4.26432 -1.15924,-0.0955 c -0.68313,-0.0561 -1.23168,-0.28441 -1.33563,-0.55528 -0.15062,-0.39248 1.24568,-6.29052 2.04525,-8.63927 0.48779,-1.43287 0.65542,-2.7414 0.35119,-2.7414 -0.16452,0 -0.59126,0.99375 -0.94831,2.20831 -1.23717,4.20847 -1.52236,4.7974 -2.32319,4.7974 -1.25114,0 -1.21796,-1.1112 0.16406,-5.49481 1.73713,-5.50988 1.69027,-5.47059 6.52037,-5.47059 l 3.79909,0 0.93596,1.13549 c 0.51477,0.62454 0.93596,1.27724 0.93596,1.45053 0,0.17321 0.35636,1.40988 0.79192,2.74805 1.16758,3.58726 1.33933,4.45468 1.00553,5.07838 -0.38549,0.72024 -1.38788,0.70902 -1.77802,-0.02 -0.33539,-0.62667 -0.94075,-2.42751 -1.57369,-4.6814 -0.22346,-0.79571 -0.51345,-1.44681 -0.6444,-1.44681 -0.36226,0 -0.29239,0.57771 0.35077,2.89978 2.4763,8.94052 2.46334,8.66043 0.40106,8.67012 l -0.98992,0.008 0,4.21713 c 0,3.69862 -0.0685,4.27906 -0.55702,4.72113 -0.63534,0.57499 -0.92971,0.61369 -1.57513,0.20686 -0.35875,-0.22616 -0.48962,-1.22304 -0.6092,-4.64046 -0.19753,-5.64511 -0.73147,-5.67027 -0.84655,-0.0401 -0.0719,3.515 -0.16653,4.22386 -0.60918,4.56011 -0.66489,0.50497 -1.04093,0.51322 -1.67898,0.0368 z m 12.34867,0.17906 c -0.27978,-0.11289 -0.38074,-1.31334 -0.38074,-4.52686 0,-2.40531 -0.12539,-4.45075 -0.27866,-4.54553 -0.15326,-0.0947 -0.51381,0.44353 -0.80122,1.19613 -0.64211,1.68139 -1.13886,2.15888 -1.63005,1.56706 -0.26809,-0.32302 -0.2687,-0.63812 -0.002,-1.29827 0.19334,-0.47941 0.45754,-1.14589 0.58713,-1.48094 1.44321,-3.73147 1.86014,-4.11322 4.48589,-4.10745 2.93566,0.008 3.38673,0.32623 4.60231,3.26383 0.56738,1.37118 0.95049,2.70447 0.85133,2.96284 -0.33508,0.87318 -1.14973,0.50153 -1.64079,-0.74852 -0.26322,-0.67009 -0.5845,-1.2184 -0.71395,-1.2184 -0.12946,0 -0.27999,1.92422 -0.33454,4.27602 -0.0787,3.39193 -0.19364,4.33562 -0.55606,4.56427 -1.14715,0.72368 -1.82756,-0.20101 -1.82756,-2.48351 0,-1.13828 -0.11449,-1.75301 -0.30459,-1.63556 -0.16753,0.10351 -0.3046,0.92421 -0.3046,1.82375 0,2.01139 -0.61426,2.84996 -1.75141,2.39114 z m 9.87035,-0.35532 c -0.44801,-0.49503 -0.5041,-1.69541 -0.5041,-10.78814 0,-5.62708 -0.0829,-10.44716 -0.18421,-10.71122 -0.43593,-1.13596 -0.72957,0.0785 -0.72957,3.01747 0,3.74325 -0.27993,4.72306 -1.34933,4.72306 -1.00937,0 -1.17955,-0.98854 -1.04225,-6.05442 0.0931,-3.43648 0.19061,-4.06567 0.74568,-4.81287 1.06457,-1.43308 1.76028,-1.61173 6.29543,-1.61657 0,0 2.52334,-0.0587 3.65418,0.3801 1.13085,0.43889 1.75464,0.7045 2.2755,1.85303 0.52086,1.14855 0.63772,4.32642 0.63772,4.32642 0.12115,5.46806 0.022,5.99674 -1.09982,5.86735 l -0.82701,-0.0953 -0.0853,-3.70158 c -0.0598,-2.59375 -0.20482,-3.80077 -0.48469,-4.03302 -0.32634,-0.27088 -0.43611,0.84714 -0.60006,6.1113 -0.11035,3.54352 -0.20064,8.47175 -0.20064,10.95181 0,4.14623 -0.0474,4.53439 -0.58916,4.82433 -0.83698,0.44801 -1.15661,0.39713 -1.84759,-0.29386 -0.56857,-0.56858 -0.60918,-1.01531 -0.60918,-6.70104 0,-5.21193 -0.066,-6.09184 -0.45689,-6.09184 -0.39073,0 -0.45689,0.87238 -0.45689,6.02406 0,4.95932 -0.0838,6.14375 -0.47416,6.70104 -0.5758,0.82207 -1.38955,0.86925 -2.06768,0.11993 z m -50.13074,-14.56142 c -0.34721,-0.44144 -0.63129,-1.03975 -0.63129,-1.3296 0,-1.02164 1.18987,-2.13212 2.28445,-2.13212 1.30564,0 2.41174,1.25477 2.13639,2.4235 -0.43408,1.84258 -2.67414,2.45626 -3.78955,1.03822 z m 40.85086,0.18154 c -1.43361,-1.33561 -0.38343,-3.64326 1.658,-3.64326 1.15572,0 1.93969,0.88912 1.93969,2.19989 0,1.81294 -2.23746,2.71056 -3.59769,1.44337 z m -28.50985,-12.80446 c -1.03337,-1.22809 -1.00243,-2.24638 0.10179,-3.35059 1.24891,-1.24891 2.72883,-1.2307 3.80377,0.0468 0.43371,0.51543 0.78856,1.25878 0.78856,1.65189 0,0.39311 -0.35485,1.13647 -0.78856,1.6519 -0.62727,0.74546 -1.02668,0.93715 -1.95277,0.93715 -0.92611,0 -1.32551,-0.19169 -1.95279,-0.93715 z m 16.40713,0.18951 c -1.64259,-1.64261 -0.48388,-4.43045 1.8414,-4.43045 1.48538,0 2.58905,1.10367 2.58905,2.58903 0,1.48539 -1.10367,2.58905 -2.58905,2.58905 -0.75515,0 -1.32522,-0.23146 -1.8414,-0.74763 z m -39.93146,-0.77278 c -1.39488,-0.56289 -2.06451,-2.58443 -1.31809,-3.97913 0.1725,-0.32231 0.73077,-0.80173 1.24061,-1.06538 1.89803,-0.98151 3.92845,0.37224 3.92845,2.61921 0,0.91047 -0.19533,1.3146 -0.93715,1.93878 -0.96391,0.81106 -1.77429,0.9464 -2.91382,0.48652 z m 62.89065,-0.16384 c -0.98876,-0.53697 -1.60777,-2.18367 -1.21101,-3.22152 0.6389,-1.67117 2.27105,-2.37255 3.81554,-1.63964 1.87632,0.89037 2.18142,3.05699 0.64662,4.59178 -0.83609,0.83611 -2.02604,0.93471 -3.25115,0.26938 z"
       id="path3595"
       inkscape:connector-curvature="0"
       sodipodi:nodetypes="sssssssssssssssssssscsssssssscsssssssscsssssscsssscssssssscscsssssssssssscsssssssscssssssssscssssssscscsscssssssssssscccssssssszzsscssssssssssccssssssssssssssssssssssssssssssss" />
  </g>
</svg>
